<mxfile host="Electron" modified="2024-04-30T03:54:20.054Z" agent="Mozilla/5.0 (Windows NT 10.0; Win64; x64) AppleWebKit/537.36 (KHTML, like Gecko) draw.io/24.2.5 Chrome/120.0.6099.109 Electron/28.1.0 Safari/537.36" etag="IDDr0Q9tIUrqxLW75wHg" version="24.2.5" type="device" pages="2">
  <diagram name="library-project" id="2YBvvXClWsGukQMizWep">
    <mxGraphModel dx="1303" dy="1118" grid="0" gridSize="10" guides="1" tooltips="1" connect="1" arrows="1" fold="1" page="1" pageScale="1" pageWidth="1169" pageHeight="827" math="0" shadow="0">
      <root>
        <mxCell id="0" />
        <mxCell id="1" parent="0" />
        <mxCell id="EfI1bzexg0ACwaUHXA0N-1" value="" style="rounded=0;whiteSpace=wrap;html=1;fillColor=none;movable=0;resizable=0;rotatable=0;deletable=0;editable=0;locked=1;connectable=0;" vertex="1" parent="1">
          <mxGeometry x="10" y="14" width="1150" height="796" as="geometry" />
        </mxCell>
        <mxCell id="8etigFABV0d6tOvESpwi-32" value="&lt;div&gt;&amp;lt;Branch&amp;gt;&lt;br&gt;&lt;/div&gt;release" style="shape=umlLifeline;perimeter=lifelinePerimeter;whiteSpace=wrap;html=1;container=0;dropTarget=0;collapsible=0;recursiveResize=0;outlineConnect=0;portConstraint=eastwest;newEdgeStyle={&quot;edgeStyle&quot;:&quot;elbowEdgeStyle&quot;,&quot;elbow&quot;:&quot;vertical&quot;,&quot;curved&quot;:0,&quot;rounded&quot;:0};fillColor=#e51400;strokeColor=#666666;fontColor=#ffffff;" parent="1" vertex="1">
          <mxGeometry x="530" y="66" width="100" height="724" as="geometry" />
        </mxCell>
        <mxCell id="8etigFABV0d6tOvESpwi-3" value="GitHub&lt;div&gt;Packages&lt;/div&gt;" style="shape=umlLifeline;perimeter=lifelinePerimeter;whiteSpace=wrap;html=1;container=0;dropTarget=0;collapsible=0;recursiveResize=0;outlineConnect=0;portConstraint=eastwest;newEdgeStyle={&quot;edgeStyle&quot;:&quot;elbowEdgeStyle&quot;,&quot;elbow&quot;:&quot;vertical&quot;,&quot;curved&quot;:0,&quot;rounded&quot;:0};fontColor=#FFFFFF;strokeColor=#990099;fillColor=#990099;" parent="1" vertex="1">
          <mxGeometry x="770" y="66" width="100" height="724" as="geometry" />
        </mxCell>
        <mxCell id="8etigFABV0d6tOvESpwi-11" value="GitHub&lt;div&gt;Actions&lt;/div&gt;" style="shape=umlLifeline;perimeter=lifelinePerimeter;whiteSpace=wrap;html=1;container=0;dropTarget=0;collapsible=0;recursiveResize=0;outlineConnect=0;portConstraint=eastwest;newEdgeStyle={&quot;edgeStyle&quot;:&quot;elbowEdgeStyle&quot;,&quot;elbow&quot;:&quot;vertical&quot;,&quot;curved&quot;:0,&quot;rounded&quot;:0};fontColor=#ffffff;fillColor=#a20025;strokeColor=#990099;" parent="1" vertex="1">
          <mxGeometry x="650" y="66" width="100" height="724" as="geometry" />
        </mxCell>
        <mxCell id="8etigFABV0d6tOvESpwi-26" value="&lt;div&gt;&amp;lt;Branch&amp;gt;&lt;br&gt;&lt;/div&gt;hotfix" style="shape=umlLifeline;perimeter=lifelinePerimeter;whiteSpace=wrap;html=1;container=0;dropTarget=0;collapsible=0;recursiveResize=0;outlineConnect=0;portConstraint=eastwest;newEdgeStyle={&quot;edgeStyle&quot;:&quot;elbowEdgeStyle&quot;,&quot;elbow&quot;:&quot;vertical&quot;,&quot;curved&quot;:0,&quot;rounded&quot;:0};fillColor=#f0a30a;fontColor=#FFFFFF;strokeColor=#666666;" parent="1" vertex="1">
          <mxGeometry x="410" y="66" width="100" height="720" as="geometry" />
        </mxCell>
        <mxCell id="8etigFABV0d6tOvESpwi-29" value="" style="verticalLabelPosition=bottom;verticalAlign=top;html=1;strokeWidth=4;shape=mxgraph.flowchart.on-page_reference;plain-blue;gradientColor=#EA6B66;strokeColor=#B85450;fillColor=#F8CECC;" parent="1" vertex="1">
          <mxGeometry x="570" y="136" width="20" height="20" as="geometry" />
        </mxCell>
        <mxCell id="8etigFABV0d6tOvESpwi-53" value="" style="verticalLabelPosition=bottom;verticalAlign=top;html=1;strokeWidth=4;shape=mxgraph.flowchart.on-page_reference;strokeColor=#b46504;fillColor=#fad7ac;" parent="1" vertex="1">
          <mxGeometry x="450" y="170" width="20" height="20" as="geometry" />
        </mxCell>
        <mxCell id="8etigFABV0d6tOvESpwi-78" style="edgeStyle=orthogonalEdgeStyle;rounded=0;orthogonalLoop=1;jettySize=auto;html=1;exitX=1;exitY=0.5;exitDx=0;exitDy=0;entryX=1;entryY=0.25;entryDx=0;entryDy=0;strokeWidth=3;" parent="1" source="8etigFABV0d6tOvESpwi-81" target="8etigFABV0d6tOvESpwi-82" edge="1">
          <mxGeometry relative="1" as="geometry" />
        </mxCell>
        <mxCell id="8etigFABV0d6tOvESpwi-83" value="CI/CD" style="swimlane;fontStyle=0;childLayout=stackLayout;horizontal=1;startSize=30;horizontalStack=0;resizeParent=1;resizeParentMax=0;resizeLast=0;collapsible=1;marginBottom=0;whiteSpace=wrap;html=1;swimlaneFillColor=default;" parent="1" vertex="1">
          <mxGeometry x="660" y="318" width="80" height="90" as="geometry">
            <mxRectangle x="300" y="255" width="80" height="30" as="alternateBounds" />
          </mxGeometry>
        </mxCell>
        <mxCell id="8etigFABV0d6tOvESpwi-84" value="マージ前テスト" style="text;strokeColor=none;fillColor=none;align=left;verticalAlign=middle;spacingLeft=4;spacingRight=4;overflow=hidden;points=[[0,0.5],[1,0.5]];portConstraint=eastwest;rotatable=0;whiteSpace=wrap;html=1;fontSize=10;" parent="8etigFABV0d6tOvESpwi-83" vertex="1">
          <mxGeometry y="30" width="80" height="30" as="geometry" />
        </mxCell>
        <mxCell id="8etigFABV0d6tOvESpwi-85" value="脆弱性検査" style="text;strokeColor=none;fillColor=none;align=left;verticalAlign=middle;spacingLeft=4;spacingRight=4;overflow=hidden;points=[[0,0.5],[1,0.5]];portConstraint=eastwest;rotatable=0;whiteSpace=wrap;html=1;" parent="8etigFABV0d6tOvESpwi-83" vertex="1">
          <mxGeometry y="60" width="80" height="30" as="geometry" />
        </mxCell>
        <mxCell id="8etigFABV0d6tOvESpwi-86" style="edgeStyle=orthogonalEdgeStyle;rounded=0;orthogonalLoop=1;jettySize=auto;html=1;exitX=1;exitY=0.5;exitDx=0;exitDy=0;entryX=0.5;entryY=0;entryDx=0;entryDy=0;strokeWidth=3;" parent="1" source="8etigFABV0d6tOvESpwi-80" target="8etigFABV0d6tOvESpwi-83" edge="1">
          <mxGeometry relative="1" as="geometry" />
        </mxCell>
        <mxCell id="pM1m3BmIEo-M1V_qtTZu-4" value="トリガー: プルリクエスト" style="edgeLabel;html=1;align=center;verticalAlign=middle;resizable=0;points=[];" vertex="1" connectable="0" parent="8etigFABV0d6tOvESpwi-86">
          <mxGeometry x="-0.2717" y="2" relative="1" as="geometry">
            <mxPoint x="28" y="-10" as="offset" />
          </mxGeometry>
        </mxCell>
        <mxCell id="8etigFABV0d6tOvESpwi-87" style="edgeStyle=orthogonalEdgeStyle;rounded=0;orthogonalLoop=1;jettySize=auto;html=1;exitX=0.5;exitY=1;exitDx=0;exitDy=0;entryX=1;entryY=0.667;entryDx=0;entryDy=0;entryPerimeter=0;strokeWidth=3;" parent="1" source="8etigFABV0d6tOvESpwi-83" target="8etigFABV0d6tOvESpwi-82" edge="1">
          <mxGeometry relative="1" as="geometry" />
        </mxCell>
        <mxCell id="8etigFABV0d6tOvESpwi-88" value="" style="verticalLabelPosition=bottom;verticalAlign=top;html=1;strokeWidth=4;shape=mxgraph.flowchart.on-page_reference;plain-blue;gradientColor=#EA6B66;strokeColor=#B85450;fillColor=#F8CECC;" parent="1" vertex="1">
          <mxGeometry x="570" y="473" width="20" height="20" as="geometry" />
        </mxCell>
        <mxCell id="8etigFABV0d6tOvESpwi-89" style="edgeStyle=orthogonalEdgeStyle;rounded=0;orthogonalLoop=1;jettySize=auto;html=1;exitX=0.5;exitY=1;exitDx=0;exitDy=0;exitPerimeter=0;entryX=0.5;entryY=0;entryDx=0;entryDy=0;entryPerimeter=0;strokeWidth=3;" parent="1" source="8etigFABV0d6tOvESpwi-29" target="8etigFABV0d6tOvESpwi-88" edge="1">
          <mxGeometry relative="1" as="geometry" />
        </mxCell>
        <mxCell id="8etigFABV0d6tOvESpwi-79" value="Pull Request" style="swimlane;fontStyle=0;childLayout=stackLayout;horizontal=1;startSize=30;horizontalStack=0;resizeParent=1;resizeParentMax=0;resizeLast=0;collapsible=1;marginBottom=0;whiteSpace=wrap;html=1;swimlaneFillColor=default;verticalAlign=middle;" parent="1" vertex="1">
          <mxGeometry x="540" y="249" width="80" height="90" as="geometry">
            <mxRectangle x="180" y="190" width="80" height="30" as="alternateBounds" />
          </mxGeometry>
        </mxCell>
        <mxCell id="8etigFABV0d6tOvESpwi-80" value="CI/CD 実行" style="text;strokeColor=none;fillColor=none;align=left;verticalAlign=middle;spacingLeft=4;spacingRight=4;overflow=hidden;points=[[0,0.5],[1,0.5]];portConstraint=eastwest;rotatable=0;whiteSpace=wrap;html=1;" parent="8etigFABV0d6tOvESpwi-79" vertex="1">
          <mxGeometry y="30" width="80" height="30" as="geometry" />
        </mxCell>
        <mxCell id="8etigFABV0d6tOvESpwi-81" value="レビュー" style="text;strokeColor=none;fillColor=none;align=left;verticalAlign=middle;spacingLeft=4;spacingRight=4;overflow=hidden;points=[[0,0.5],[1,0.5]];portConstraint=eastwest;rotatable=0;whiteSpace=wrap;html=1;" parent="8etigFABV0d6tOvESpwi-79" vertex="1">
          <mxGeometry y="60" width="80" height="30" as="geometry" />
        </mxCell>
        <mxCell id="8etigFABV0d6tOvESpwi-82" value="承認" style="rounded=1;whiteSpace=wrap;html=1;arcSize=50;" parent="1" vertex="1">
          <mxGeometry x="540" y="408" width="80" height="30" as="geometry" />
        </mxCell>
        <mxCell id="8etigFABV0d6tOvESpwi-95" value="&lt;font style=&quot;font-size: 10px;&quot;&gt;パッケージ&lt;/font&gt;" style="shape=cube;whiteSpace=wrap;html=1;boundedLbl=1;backgroundOutline=1;darkOpacity=0.05;darkOpacity2=0.1;" parent="1" vertex="1">
          <mxGeometry x="780" y="723" width="80" height="40" as="geometry" />
        </mxCell>
        <mxCell id="8etigFABV0d6tOvESpwi-96" value="CI/CD" style="swimlane;fontStyle=0;childLayout=stackLayout;horizontal=1;startSize=30;horizontalStack=0;resizeParent=1;resizeParentMax=0;resizeLast=0;collapsible=1;marginBottom=0;whiteSpace=wrap;html=1;swimlaneFillColor=default;" parent="1" vertex="1">
          <mxGeometry x="660" y="693" width="80" height="70" as="geometry">
            <mxRectangle x="660" y="647" width="80" height="30" as="alternateBounds" />
          </mxGeometry>
        </mxCell>
        <mxCell id="8etigFABV0d6tOvESpwi-97" value="&lt;font style=&quot;font-size: 10px;&quot;&gt;パッケージ&lt;br&gt;ビルド&lt;/font&gt;" style="text;strokeColor=none;fillColor=none;align=left;verticalAlign=middle;spacingLeft=4;spacingRight=4;overflow=hidden;points=[[0,0.5],[1,0.5]];portConstraint=eastwest;rotatable=0;whiteSpace=wrap;html=1;" parent="8etigFABV0d6tOvESpwi-96" vertex="1">
          <mxGeometry y="30" width="80" height="40" as="geometry" />
        </mxCell>
        <mxCell id="8etigFABV0d6tOvESpwi-101" style="edgeStyle=orthogonalEdgeStyle;rounded=0;orthogonalLoop=1;jettySize=auto;html=1;exitX=0.5;exitY=1;exitDx=0;exitDy=0;exitPerimeter=0;entryX=0.5;entryY=0;entryDx=0;entryDy=0;entryPerimeter=0;strokeWidth=3;endArrow=none;endFill=0;" parent="1" source="8etigFABV0d6tOvESpwi-88" edge="1">
          <mxGeometry relative="1" as="geometry">
            <mxPoint x="580" y="791.0000000000002" as="targetPoint" />
          </mxGeometry>
        </mxCell>
        <mxCell id="8etigFABV0d6tOvESpwi-113" style="edgeStyle=orthogonalEdgeStyle;rounded=0;orthogonalLoop=1;jettySize=auto;html=1;exitX=0.5;exitY=0;exitDx=0;exitDy=0;exitPerimeter=0;strokeWidth=3;endArrow=none;endFill=0;" parent="1" source="8etigFABV0d6tOvESpwi-29" edge="1">
          <mxGeometry relative="1" as="geometry">
            <mxPoint x="580" y="106" as="targetPoint" />
          </mxGeometry>
        </mxCell>
        <mxCell id="8etigFABV0d6tOvESpwi-161" style="edgeStyle=orthogonalEdgeStyle;rounded=0;orthogonalLoop=1;jettySize=auto;html=1;exitX=0.5;exitY=1;exitDx=0;exitDy=0;strokeWidth=3;" parent="1" source="8etigFABV0d6tOvESpwi-155" target="8etigFABV0d6tOvESpwi-158" edge="1">
          <mxGeometry relative="1" as="geometry" />
        </mxCell>
        <mxCell id="8etigFABV0d6tOvESpwi-168" value="NG" style="edgeLabel;html=1;align=center;verticalAlign=middle;resizable=0;points=[];" parent="8etigFABV0d6tOvESpwi-161" vertex="1" connectable="0">
          <mxGeometry x="0.6611" y="3" relative="1" as="geometry">
            <mxPoint x="16" y="-2" as="offset" />
          </mxGeometry>
        </mxCell>
        <mxCell id="8etigFABV0d6tOvESpwi-155" value="CI/CD" style="swimlane;fontStyle=0;childLayout=stackLayout;horizontal=1;startSize=30;horizontalStack=0;resizeParent=1;resizeParentMax=0;resizeLast=0;collapsible=1;marginBottom=0;whiteSpace=wrap;html=1;swimlaneFillColor=default;" parent="1" vertex="1">
          <mxGeometry x="660" y="503" width="80" height="60" as="geometry">
            <mxRectangle x="660" y="457" width="80" height="30" as="alternateBounds" />
          </mxGeometry>
        </mxCell>
        <mxCell id="8etigFABV0d6tOvESpwi-156" value="マージ後テスト" style="text;strokeColor=none;fillColor=none;align=left;verticalAlign=middle;spacingLeft=4;spacingRight=4;overflow=hidden;points=[[0,0.5],[1,0.5]];portConstraint=eastwest;rotatable=0;whiteSpace=wrap;html=1;fontSize=10;" parent="8etigFABV0d6tOvESpwi-155" vertex="1">
          <mxGeometry y="30" width="80" height="30" as="geometry" />
        </mxCell>
        <mxCell id="8etigFABV0d6tOvESpwi-158" value="CI/CD" style="swimlane;fontStyle=0;childLayout=stackLayout;horizontal=1;startSize=30;horizontalStack=0;resizeParent=1;resizeParentMax=0;resizeLast=0;collapsible=1;marginBottom=0;whiteSpace=wrap;html=1;swimlaneFillColor=default;" parent="1" vertex="1">
          <mxGeometry x="660" y="585" width="80" height="90" as="geometry">
            <mxRectangle x="300" y="255" width="80" height="30" as="alternateBounds" />
          </mxGeometry>
        </mxCell>
        <mxCell id="8etigFABV0d6tOvESpwi-159" value="Isuue 作成" style="text;strokeColor=none;fillColor=none;align=left;verticalAlign=middle;spacingLeft=4;spacingRight=4;overflow=hidden;points=[[0,0.5],[1,0.5]];portConstraint=eastwest;rotatable=0;whiteSpace=wrap;html=1;" parent="8etigFABV0d6tOvESpwi-158" vertex="1">
          <mxGeometry y="30" width="80" height="30" as="geometry" />
        </mxCell>
        <mxCell id="8etigFABV0d6tOvESpwi-160" value="&lt;span style=&quot;color: rgb(255, 255, 255); text-align: center;&quot;&gt;Branch 作成&lt;/span&gt;" style="text;strokeColor=none;fillColor=none;align=left;verticalAlign=middle;spacingLeft=4;spacingRight=4;overflow=hidden;points=[[0,0.5],[1,0.5]];portConstraint=eastwest;rotatable=0;whiteSpace=wrap;html=1;" parent="8etigFABV0d6tOvESpwi-158" vertex="1">
          <mxGeometry y="60" width="80" height="30" as="geometry" />
        </mxCell>
        <mxCell id="8etigFABV0d6tOvESpwi-164" value="" style="verticalLabelPosition=bottom;verticalAlign=top;html=1;strokeWidth=4;shape=mxgraph.flowchart.on-page_reference;strokeColor=#b46504;fillColor=#fad7ac;" parent="1" vertex="1">
          <mxGeometry x="450" y="649" width="20" height="20" as="geometry" />
        </mxCell>
        <mxCell id="8etigFABV0d6tOvESpwi-166" style="edgeStyle=elbowEdgeStyle;rounded=0;orthogonalLoop=1;jettySize=auto;html=1;exitX=0.5;exitY=0;exitDx=0;exitDy=0;exitPerimeter=0;entryX=0;entryY=0.328;entryDx=0;entryDy=0;strokeWidth=3;entryPerimeter=0;" parent="1" source="8etigFABV0d6tOvESpwi-164" target="8etigFABV0d6tOvESpwi-79" edge="1">
          <mxGeometry relative="1" as="geometry">
            <mxPoint x="460" y="656.5" as="sourcePoint" />
            <mxPoint x="540" y="292" as="targetPoint" />
            <Array as="points">
              <mxPoint x="460" y="442.5" />
            </Array>
          </mxGeometry>
        </mxCell>
        <mxCell id="8etigFABV0d6tOvESpwi-163" style="edgeStyle=elbowEdgeStyle;rounded=0;orthogonalLoop=1;jettySize=auto;html=1;exitX=0;exitY=0.5;exitDx=0;exitDy=0;entryX=1;entryY=0.25;entryDx=0;entryDy=0;strokeWidth=3;jumpStyle=arc;strokeColor=#666666;" parent="1" source="8etigFABV0d6tOvESpwi-156" target="8etigFABV0d6tOvESpwi-124" edge="1">
          <mxGeometry relative="1" as="geometry">
            <Array as="points">
              <mxPoint x="430" y="350" />
            </Array>
          </mxGeometry>
        </mxCell>
        <mxCell id="8etigFABV0d6tOvESpwi-167" value="OK" style="edgeLabel;html=1;align=center;verticalAlign=middle;resizable=0;points=[];" parent="8etigFABV0d6tOvESpwi-163" vertex="1" connectable="0">
          <mxGeometry x="-0.8808" y="-1" relative="1" as="geometry">
            <mxPoint x="16" y="-8" as="offset" />
          </mxGeometry>
        </mxCell>
        <mxCell id="d3G8sBCb636XODliIDbv-7" value="hotfix マージ時のみ&lt;div&gt;プルリクエスト作成&lt;/div&gt;" style="edgeLabel;html=1;align=left;verticalAlign=middle;resizable=0;points=[];" vertex="1" connectable="0" parent="8etigFABV0d6tOvESpwi-163">
          <mxGeometry x="-0.5651" relative="1" as="geometry">
            <mxPoint x="-46" y="-19" as="offset" />
          </mxGeometry>
        </mxCell>
        <mxCell id="8etigFABV0d6tOvESpwi-100" style="edgeStyle=orthogonalEdgeStyle;rounded=0;orthogonalLoop=1;jettySize=auto;html=1;exitX=1;exitY=0.5;exitDx=0;exitDy=0;entryX=0;entryY=0;entryDx=0;entryDy=20;entryPerimeter=0;strokeWidth=3;jumpStyle=arc;" parent="1" source="8etigFABV0d6tOvESpwi-97" target="8etigFABV0d6tOvESpwi-95" edge="1">
          <mxGeometry relative="1" as="geometry" />
        </mxCell>
        <mxCell id="8etigFABV0d6tOvESpwi-170" style="edgeStyle=orthogonalEdgeStyle;rounded=0;orthogonalLoop=1;jettySize=auto;html=1;exitX=0;exitY=0.5;exitDx=0;exitDy=0;exitPerimeter=0;entryX=0.5;entryY=0;entryDx=0;entryDy=0;entryPerimeter=0;strokeWidth=3;" parent="1" source="8etigFABV0d6tOvESpwi-29" target="8etigFABV0d6tOvESpwi-53" edge="1">
          <mxGeometry relative="1" as="geometry" />
        </mxCell>
        <mxCell id="7mlOmqwxrpPTEg_H7IPm-3" value="緊急要件 発生" style="edgeLabel;html=1;align=center;verticalAlign=middle;resizable=0;points=[];" vertex="1" connectable="0" parent="8etigFABV0d6tOvESpwi-170">
          <mxGeometry x="-0.4957" y="-1" relative="1" as="geometry">
            <mxPoint y="-11" as="offset" />
          </mxGeometry>
        </mxCell>
        <mxCell id="8etigFABV0d6tOvESpwi-171" style="edgeStyle=orthogonalEdgeStyle;rounded=0;orthogonalLoop=1;jettySize=auto;html=1;exitX=0.5;exitY=1;exitDx=0;exitDy=0;exitPerimeter=0;entryX=0;entryY=0;entryDx=0;entryDy=0;strokeWidth=3;" parent="1" source="8etigFABV0d6tOvESpwi-53" target="8etigFABV0d6tOvESpwi-79" edge="1">
          <mxGeometry relative="1" as="geometry">
            <Array as="points">
              <mxPoint x="460" y="249" />
            </Array>
          </mxGeometry>
        </mxCell>
        <mxCell id="EfI1bzexg0ACwaUHXA0N-2" value="&lt;font style=&quot;font-size: 18px;&quot;&gt;ライブラリプロジェクト ブランチ戦略　概要図&lt;/font&gt;" style="shape=process;whiteSpace=wrap;html=1;backgroundOutline=1;" vertex="1" parent="1">
          <mxGeometry x="10" y="14" width="867" height="35" as="geometry" />
        </mxCell>
        <mxCell id="EfI1bzexg0ACwaUHXA0N-3" value="&amp;nbsp;Created by&lt;div&gt;&amp;nbsp; Yuu Konno&lt;/div&gt;&lt;div&gt;&amp;nbsp; &amp;nbsp;(ateliers.dev)&lt;/div&gt;&lt;div&gt;&lt;br&gt;&lt;/div&gt;&lt;div&gt;&amp;nbsp;Create Date:&lt;/div&gt;&lt;div&gt;&amp;nbsp; 2024/04/30&lt;br&gt;&lt;/div&gt;&lt;div&gt;&lt;br&gt;&lt;/div&gt;&lt;div&gt;&amp;nbsp;Update Date:&lt;/div&gt;&lt;div&gt;&amp;nbsp; 2024/04/30&lt;br&gt;&lt;/div&gt;&lt;div&gt;&lt;br&gt;&lt;/div&gt;&lt;div&gt;&amp;nbsp;Flow Version:&lt;/div&gt;&lt;div&gt;&amp;nbsp; 1.0&lt;/div&gt;" style="shape=note2;boundedLbl=1;whiteSpace=wrap;html=1;size=25;verticalAlign=top;align=left;spacingLeft=5;" vertex="1" parent="1">
          <mxGeometry x="1040" y="580" width="110" height="222" as="geometry" />
        </mxCell>
        <mxCell id="EfI1bzexg0ACwaUHXA0N-4" value="&amp;nbsp;draw.io" style="resizeWidth=1;part=1;strokeColor=none;fillColor=none;align=left;spacingLeft=5;html=1;whiteSpace=wrap;" vertex="1" parent="EfI1bzexg0ACwaUHXA0N-3">
          <mxGeometry width="110" height="25" relative="1" as="geometry" />
        </mxCell>
        <mxCell id="ojbDTQnioMnIqjVi7_HN-1" value="&amp;lt;Branch&amp;gt;&lt;div&gt;feature&lt;/div&gt;" style="shape=umlLifeline;perimeter=lifelinePerimeter;whiteSpace=wrap;html=1;container=0;dropTarget=0;collapsible=0;recursiveResize=0;outlineConnect=0;portConstraint=eastwest;newEdgeStyle={&quot;edgeStyle&quot;:&quot;elbowEdgeStyle&quot;,&quot;elbow&quot;:&quot;vertical&quot;,&quot;curved&quot;:0,&quot;rounded&quot;:0};fillColor=#6d8764;fontColor=#ffffff;strokeColor=#666666;" vertex="1" parent="1">
          <mxGeometry x="50" y="66" width="100" height="720" as="geometry" />
        </mxCell>
        <mxCell id="ojbDTQnioMnIqjVi7_HN-2" value="&lt;div&gt;&amp;lt;Branch&amp;gt;&lt;br&gt;&lt;/div&gt;master" style="shape=umlLifeline;perimeter=lifelinePerimeter;whiteSpace=wrap;html=1;container=0;dropTarget=0;collapsible=0;recursiveResize=0;outlineConnect=0;portConstraint=eastwest;newEdgeStyle={&quot;edgeStyle&quot;:&quot;elbowEdgeStyle&quot;,&quot;elbow&quot;:&quot;vertical&quot;,&quot;curved&quot;:0,&quot;rounded&quot;:0};fillColor=#647687;fontColor=#ffffff;strokeColor=#666666;" vertex="1" parent="1">
          <mxGeometry x="170" y="66" width="100" height="726" as="geometry" />
        </mxCell>
        <mxCell id="ojbDTQnioMnIqjVi7_HN-3" value="GitHub&lt;div&gt;Actions&lt;/div&gt;" style="shape=umlLifeline;perimeter=lifelinePerimeter;whiteSpace=wrap;html=1;container=0;dropTarget=0;collapsible=0;recursiveResize=0;outlineConnect=0;portConstraint=eastwest;newEdgeStyle={&quot;edgeStyle&quot;:&quot;elbowEdgeStyle&quot;,&quot;elbow&quot;:&quot;vertical&quot;,&quot;curved&quot;:0,&quot;rounded&quot;:0};fillColor=#a20025;strokeColor=#990099;fontColor=#ffffff;strokeWidth=1;" vertex="1" parent="1">
          <mxGeometry x="290" y="66" width="100" height="720" as="geometry" />
        </mxCell>
        <mxCell id="ojbDTQnioMnIqjVi7_HN-4" value="" style="verticalLabelPosition=bottom;verticalAlign=top;html=1;strokeWidth=4;shape=mxgraph.flowchart.on-page_reference;strokeColor=#10739e;fillColor=#b1ddf0;" vertex="1" parent="1">
          <mxGeometry x="210" y="136" width="20" height="20" as="geometry" />
        </mxCell>
        <mxCell id="ojbDTQnioMnIqjVi7_HN-5" value="" style="verticalLabelPosition=bottom;verticalAlign=top;html=1;strokeWidth=4;shape=mxgraph.flowchart.on-page_reference;strokeColor=#0e8088;fillColor=#b0e3e6;" vertex="1" parent="1">
          <mxGeometry x="90" y="170" width="20" height="20" as="geometry" />
        </mxCell>
        <mxCell id="ojbDTQnioMnIqjVi7_HN-7" value="" style="verticalLabelPosition=bottom;verticalAlign=top;html=1;strokeWidth=4;shape=mxgraph.flowchart.on-page_reference;strokeColor=#10739e;fillColor=#b1ddf0;" vertex="1" parent="1">
          <mxGeometry x="210" y="411" width="20" height="20" as="geometry" />
        </mxCell>
        <mxCell id="ojbDTQnioMnIqjVi7_HN-8" style="edgeStyle=orthogonalEdgeStyle;rounded=0;orthogonalLoop=1;jettySize=auto;html=1;exitX=0.5;exitY=1;exitDx=0;exitDy=0;entryX=1;entryY=0.75;entryDx=0;entryDy=0;strokeWidth=3;" edge="1" parent="1" source="ojbDTQnioMnIqjVi7_HN-9" target="ojbDTQnioMnIqjVi7_HN-20">
          <mxGeometry relative="1" as="geometry" />
        </mxCell>
        <mxCell id="ojbDTQnioMnIqjVi7_HN-9" value="CI/CD" style="swimlane;fontStyle=0;childLayout=stackLayout;horizontal=1;startSize=30;horizontalStack=0;resizeParent=1;resizeParentMax=0;resizeLast=0;collapsible=1;marginBottom=0;whiteSpace=wrap;html=1;swimlaneFillColor=default;" vertex="1" parent="1">
          <mxGeometry x="300" y="270" width="80" height="90" as="geometry">
            <mxRectangle x="300" y="263" width="80" height="30" as="alternateBounds" />
          </mxGeometry>
        </mxCell>
        <mxCell id="ojbDTQnioMnIqjVi7_HN-10" value="マージ前テスト" style="text;strokeColor=none;fillColor=none;align=left;verticalAlign=middle;spacingLeft=4;spacingRight=4;overflow=hidden;points=[[0,0.5],[1,0.5]];portConstraint=eastwest;rotatable=0;whiteSpace=wrap;html=1;fontSize=10;" vertex="1" parent="ojbDTQnioMnIqjVi7_HN-9">
          <mxGeometry y="30" width="80" height="30" as="geometry" />
        </mxCell>
        <mxCell id="ojbDTQnioMnIqjVi7_HN-11" value="脆弱性検査" style="text;strokeColor=none;fillColor=none;align=left;verticalAlign=middle;spacingLeft=4;spacingRight=4;overflow=hidden;points=[[0,0.5],[1,0.5]];portConstraint=eastwest;rotatable=0;whiteSpace=wrap;html=1;" vertex="1" parent="ojbDTQnioMnIqjVi7_HN-9">
          <mxGeometry y="60" width="80" height="30" as="geometry" />
        </mxCell>
        <mxCell id="ojbDTQnioMnIqjVi7_HN-12" style="edgeStyle=orthogonalEdgeStyle;rounded=0;orthogonalLoop=1;jettySize=auto;html=1;exitX=0.5;exitY=1;exitDx=0;exitDy=0;exitPerimeter=0;entryX=0.5;entryY=0;entryDx=0;entryDy=0;entryPerimeter=0;strokeWidth=3;endArrow=none;endFill=0;" edge="1" parent="1" source="ojbDTQnioMnIqjVi7_HN-7">
          <mxGeometry relative="1" as="geometry">
            <mxPoint x="220" y="796" as="targetPoint" />
          </mxGeometry>
        </mxCell>
        <mxCell id="ojbDTQnioMnIqjVi7_HN-13" style="edgeStyle=orthogonalEdgeStyle;rounded=0;orthogonalLoop=1;jettySize=auto;html=1;exitX=0.5;exitY=0;exitDx=0;exitDy=0;exitPerimeter=0;strokeWidth=3;endArrow=none;endFill=0;" edge="1" parent="1" source="ojbDTQnioMnIqjVi7_HN-4">
          <mxGeometry relative="1" as="geometry">
            <mxPoint x="220" y="106" as="targetPoint" />
          </mxGeometry>
        </mxCell>
        <mxCell id="ojbDTQnioMnIqjVi7_HN-14" style="edgeStyle=orthogonalEdgeStyle;rounded=0;orthogonalLoop=1;jettySize=auto;html=1;exitX=0;exitY=0.5;exitDx=0;exitDy=0;exitPerimeter=0;entryX=0.5;entryY=0;entryDx=0;entryDy=0;entryPerimeter=0;strokeWidth=3;" edge="1" parent="1" source="ojbDTQnioMnIqjVi7_HN-4" target="ojbDTQnioMnIqjVi7_HN-5">
          <mxGeometry relative="1" as="geometry" />
        </mxCell>
        <mxCell id="ojbDTQnioMnIqjVi7_HN-15" value="開発要件 発生" style="edgeLabel;html=1;align=center;verticalAlign=middle;resizable=0;points=[];" vertex="1" connectable="0" parent="ojbDTQnioMnIqjVi7_HN-14">
          <mxGeometry x="-0.5224" y="2" relative="1" as="geometry">
            <mxPoint x="-10" y="-13" as="offset" />
          </mxGeometry>
        </mxCell>
        <mxCell id="ojbDTQnioMnIqjVi7_HN-16" style="edgeStyle=orthogonalEdgeStyle;rounded=0;orthogonalLoop=1;jettySize=auto;html=1;exitX=0.5;exitY=1;exitDx=0;exitDy=0;exitPerimeter=0;entryX=0.5;entryY=0;entryDx=0;entryDy=0;entryPerimeter=0;strokeWidth=3;" edge="1" parent="1" source="ojbDTQnioMnIqjVi7_HN-4" target="ojbDTQnioMnIqjVi7_HN-7">
          <mxGeometry relative="1" as="geometry">
            <mxPoint x="220" y="320" as="sourcePoint" />
          </mxGeometry>
        </mxCell>
        <mxCell id="ojbDTQnioMnIqjVi7_HN-17" value="&lt;div&gt;&lt;span style=&quot;background-color: initial;&quot;&gt;Pull Request&lt;/span&gt;&lt;br&gt;&lt;/div&gt;" style="swimlane;fontStyle=0;childLayout=stackLayout;horizontal=1;startSize=30;horizontalStack=0;resizeParent=1;resizeParentMax=0;resizeLast=0;collapsible=1;marginBottom=0;whiteSpace=wrap;html=1;swimlaneFillColor=default;verticalAlign=middle;" vertex="1" parent="1">
          <mxGeometry x="180" y="200" width="80" height="90" as="geometry">
            <mxRectangle x="180" y="190" width="80" height="30" as="alternateBounds" />
          </mxGeometry>
        </mxCell>
        <mxCell id="ojbDTQnioMnIqjVi7_HN-18" value="CI/CD 実行" style="text;strokeColor=none;fillColor=none;align=left;verticalAlign=middle;spacingLeft=4;spacingRight=4;overflow=hidden;points=[[0,0.5],[1,0.5]];portConstraint=eastwest;rotatable=0;whiteSpace=wrap;html=1;" vertex="1" parent="ojbDTQnioMnIqjVi7_HN-17">
          <mxGeometry y="30" width="80" height="30" as="geometry" />
        </mxCell>
        <mxCell id="ojbDTQnioMnIqjVi7_HN-19" value="レビュー" style="text;strokeColor=none;fillColor=none;align=left;verticalAlign=middle;spacingLeft=4;spacingRight=4;overflow=hidden;points=[[0,0.5],[1,0.5]];portConstraint=eastwest;rotatable=0;whiteSpace=wrap;html=1;" vertex="1" parent="ojbDTQnioMnIqjVi7_HN-17">
          <mxGeometry y="60" width="80" height="30" as="geometry" />
        </mxCell>
        <mxCell id="ojbDTQnioMnIqjVi7_HN-20" value="承認" style="rounded=1;whiteSpace=wrap;html=1;arcSize=50;" vertex="1" parent="1">
          <mxGeometry x="180" y="359" width="80" height="30" as="geometry" />
        </mxCell>
        <mxCell id="ojbDTQnioMnIqjVi7_HN-21" style="edgeStyle=orthogonalEdgeStyle;rounded=0;orthogonalLoop=1;jettySize=auto;html=1;exitX=0.5;exitY=1;exitDx=0;exitDy=0;strokeWidth=3;" edge="1" parent="1" source="ojbDTQnioMnIqjVi7_HN-23" target="ojbDTQnioMnIqjVi7_HN-25">
          <mxGeometry relative="1" as="geometry" />
        </mxCell>
        <mxCell id="ojbDTQnioMnIqjVi7_HN-22" value="NG" style="edgeLabel;html=1;align=center;verticalAlign=middle;resizable=0;points=[];" vertex="1" connectable="0" parent="ojbDTQnioMnIqjVi7_HN-21">
          <mxGeometry x="0.4736" relative="1" as="geometry">
            <mxPoint x="18" y="2" as="offset" />
          </mxGeometry>
        </mxCell>
        <mxCell id="ojbDTQnioMnIqjVi7_HN-23" value="CI/CD" style="swimlane;fontStyle=0;childLayout=stackLayout;horizontal=1;startSize=30;horizontalStack=0;resizeParent=1;resizeParentMax=0;resizeLast=0;collapsible=1;marginBottom=0;whiteSpace=wrap;html=1;swimlaneFillColor=default;" vertex="1" parent="1">
          <mxGeometry x="300" y="455" width="80" height="60" as="geometry">
            <mxRectangle x="300" y="455" width="80" height="30" as="alternateBounds" />
          </mxGeometry>
        </mxCell>
        <mxCell id="ojbDTQnioMnIqjVi7_HN-24" value="マージ後テスト" style="text;strokeColor=none;fillColor=none;align=left;verticalAlign=middle;spacingLeft=4;spacingRight=4;overflow=hidden;points=[[0,0.5],[1,0.5]];portConstraint=eastwest;rotatable=0;whiteSpace=wrap;html=1;fontSize=10;" vertex="1" parent="ojbDTQnioMnIqjVi7_HN-23">
          <mxGeometry y="30" width="80" height="30" as="geometry" />
        </mxCell>
        <mxCell id="ojbDTQnioMnIqjVi7_HN-25" value="CI/CD" style="swimlane;fontStyle=0;childLayout=stackLayout;horizontal=1;startSize=30;horizontalStack=0;resizeParent=1;resizeParentMax=0;resizeLast=0;collapsible=1;marginBottom=0;whiteSpace=wrap;html=1;swimlaneFillColor=default;" vertex="1" parent="1">
          <mxGeometry x="300" y="540" width="80" height="90" as="geometry">
            <mxRectangle x="300" y="255" width="80" height="30" as="alternateBounds" />
          </mxGeometry>
        </mxCell>
        <mxCell id="ojbDTQnioMnIqjVi7_HN-26" value="Isuue 作成" style="text;strokeColor=none;fillColor=none;align=left;verticalAlign=middle;spacingLeft=4;spacingRight=4;overflow=hidden;points=[[0,0.5],[1,0.5]];portConstraint=eastwest;rotatable=0;whiteSpace=wrap;html=1;" vertex="1" parent="ojbDTQnioMnIqjVi7_HN-25">
          <mxGeometry y="30" width="80" height="30" as="geometry" />
        </mxCell>
        <mxCell id="ojbDTQnioMnIqjVi7_HN-27" value="&lt;span style=&quot;color: rgb(255, 255, 255); text-align: center;&quot;&gt;Branch 作成&lt;/span&gt;" style="text;strokeColor=none;fillColor=none;align=left;verticalAlign=middle;spacingLeft=4;spacingRight=4;overflow=hidden;points=[[0,0.5],[1,0.5]];portConstraint=eastwest;rotatable=0;whiteSpace=wrap;html=1;" vertex="1" parent="ojbDTQnioMnIqjVi7_HN-25">
          <mxGeometry y="60" width="80" height="30" as="geometry" />
        </mxCell>
        <mxCell id="ojbDTQnioMnIqjVi7_HN-29" style="edgeStyle=orthogonalEdgeStyle;rounded=0;orthogonalLoop=1;jettySize=auto;html=1;exitX=0;exitY=0.5;exitDx=0;exitDy=0;entryX=0.5;entryY=1;entryDx=0;entryDy=0;entryPerimeter=0;strokeWidth=3;jumpStyle=arc;" edge="1" parent="1" source="ojbDTQnioMnIqjVi7_HN-27" target="ojbDTQnioMnIqjVi7_HN-35">
          <mxGeometry relative="1" as="geometry">
            <mxPoint x="100" y="524" as="targetPoint" />
          </mxGeometry>
        </mxCell>
        <mxCell id="d3G8sBCb636XODliIDbv-9" value="feature/テスト失敗" style="edgeLabel;html=1;align=left;verticalAlign=middle;resizable=0;points=[];" vertex="1" connectable="0" parent="ojbDTQnioMnIqjVi7_HN-29">
          <mxGeometry x="0.1003" y="-2" relative="1" as="geometry">
            <mxPoint x="-49" y="-11" as="offset" />
          </mxGeometry>
        </mxCell>
        <mxCell id="ojbDTQnioMnIqjVi7_HN-31" style="edgeStyle=orthogonalEdgeStyle;rounded=0;orthogonalLoop=1;jettySize=auto;html=1;exitX=1;exitY=0.5;exitDx=0;exitDy=0;entryX=0.5;entryY=0;entryDx=0;entryDy=0;endArrow=classic;endFill=1;strokeWidth=3;" edge="1" parent="1" source="ojbDTQnioMnIqjVi7_HN-18" target="ojbDTQnioMnIqjVi7_HN-9">
          <mxGeometry relative="1" as="geometry" />
        </mxCell>
        <mxCell id="pM1m3BmIEo-M1V_qtTZu-3" value="トリガー: プルリクエスト" style="edgeLabel;html=1;align=center;verticalAlign=middle;resizable=0;points=[];" vertex="1" connectable="0" parent="ojbDTQnioMnIqjVi7_HN-31">
          <mxGeometry x="-0.5283" relative="1" as="geometry">
            <mxPoint x="41" y="-12" as="offset" />
          </mxGeometry>
        </mxCell>
        <mxCell id="ojbDTQnioMnIqjVi7_HN-33" style="edgeStyle=orthogonalEdgeStyle;rounded=0;orthogonalLoop=1;jettySize=auto;html=1;exitX=1;exitY=0.5;exitDx=0;exitDy=0;entryX=1;entryY=0.25;entryDx=0;entryDy=0;strokeWidth=3;" edge="1" parent="1" source="ojbDTQnioMnIqjVi7_HN-19" target="ojbDTQnioMnIqjVi7_HN-20">
          <mxGeometry relative="1" as="geometry" />
        </mxCell>
        <mxCell id="ojbDTQnioMnIqjVi7_HN-35" value="" style="verticalLabelPosition=bottom;verticalAlign=top;html=1;strokeWidth=4;shape=mxgraph.flowchart.on-page_reference;strokeColor=#0e8088;fillColor=#b0e3e6;" vertex="1" parent="1">
          <mxGeometry x="90" y="529" width="20" height="20" as="geometry" />
        </mxCell>
        <mxCell id="ojbDTQnioMnIqjVi7_HN-36" style="edgeStyle=orthogonalEdgeStyle;rounded=0;orthogonalLoop=1;jettySize=auto;html=1;exitX=0;exitY=0.5;exitDx=0;exitDy=0;entryX=0.75;entryY=0;entryDx=0;entryDy=0;strokeWidth=3;" edge="1" parent="1" source="8etigFABV0d6tOvESpwi-125" target="ojbDTQnioMnIqjVi7_HN-17">
          <mxGeometry relative="1" as="geometry" />
        </mxCell>
        <mxCell id="8etigFABV0d6tOvESpwi-124" value="CI/CD" style="swimlane;fontStyle=0;childLayout=stackLayout;horizontal=1;startSize=30;horizontalStack=0;resizeParent=1;resizeParentMax=0;resizeLast=0;collapsible=1;marginBottom=0;whiteSpace=wrap;html=1;swimlaneFillColor=default;" parent="1" vertex="1">
          <mxGeometry x="300" y="131" width="80" height="60" as="geometry">
            <mxRectangle x="300" y="255" width="80" height="30" as="alternateBounds" />
          </mxGeometry>
        </mxCell>
        <mxCell id="8etigFABV0d6tOvESpwi-125" value="&lt;span style=&quot;font-size: 10px;&quot;&gt;プルリクエスト&lt;/span&gt;" style="text;strokeColor=none;fillColor=none;align=left;verticalAlign=middle;spacingLeft=4;spacingRight=4;overflow=hidden;points=[[0,0.5],[1,0.5]];portConstraint=eastwest;rotatable=0;whiteSpace=wrap;html=1;" parent="8etigFABV0d6tOvESpwi-124" vertex="1">
          <mxGeometry y="30" width="80" height="30" as="geometry" />
        </mxCell>
        <mxCell id="d3G8sBCb636XODliIDbv-4" value="" style="shape=sumEllipse;perimeter=ellipsePerimeter;html=1;backgroundOutline=1;" vertex="1" parent="1">
          <mxGeometry x="395" y="543" width="20" height="20" as="geometry" />
        </mxCell>
        <mxCell id="d3G8sBCb636XODliIDbv-5" style="edgeStyle=orthogonalEdgeStyle;rounded=0;orthogonalLoop=1;jettySize=auto;html=1;exitX=1;exitY=0.5;exitDx=0;exitDy=0;entryX=0.5;entryY=0;entryDx=0;entryDy=0;strokeWidth=3;" edge="1" parent="1" target="d3G8sBCb636XODliIDbv-4" source="ojbDTQnioMnIqjVi7_HN-24">
          <mxGeometry relative="1" as="geometry">
            <mxPoint x="380" y="500" as="sourcePoint" />
          </mxGeometry>
        </mxCell>
        <mxCell id="d3G8sBCb636XODliIDbv-6" value="OK" style="edgeLabel;html=1;align=center;verticalAlign=middle;resizable=0;points=[];" vertex="1" connectable="0" parent="d3G8sBCb636XODliIDbv-5">
          <mxGeometry x="-0.5638" y="1" relative="1" as="geometry">
            <mxPoint x="-2" y="-10" as="offset" />
          </mxGeometry>
        </mxCell>
        <mxCell id="8etigFABV0d6tOvESpwi-162" style="edgeStyle=orthogonalEdgeStyle;rounded=0;orthogonalLoop=1;jettySize=auto;html=1;exitX=0;exitY=0.5;exitDx=0;exitDy=0;entryX=0;entryY=0.25;entryDx=0;entryDy=0;strokeWidth=3;" parent="1" source="8etigFABV0d6tOvESpwi-156" target="8etigFABV0d6tOvESpwi-96" edge="1">
          <mxGeometry relative="1" as="geometry" />
        </mxCell>
        <mxCell id="7mlOmqwxrpPTEg_H7IPm-1" style="edgeStyle=elbowEdgeStyle;rounded=0;orthogonalLoop=1;jettySize=auto;html=1;exitX=0.855;exitY=0.145;exitDx=0;exitDy=0;exitPerimeter=0;entryX=0.001;entryY=0.166;entryDx=0;entryDy=0;strokeWidth=3;jumpStyle=arc;entryPerimeter=0;" edge="1" parent="1" source="ojbDTQnioMnIqjVi7_HN-7" target="8etigFABV0d6tOvESpwi-79">
          <mxGeometry relative="1" as="geometry">
            <mxPoint x="227.10000000000002" y="405.9" as="sourcePoint" />
            <mxPoint x="540" y="277" as="targetPoint" />
            <Array as="points">
              <mxPoint x="400" y="342" />
            </Array>
          </mxGeometry>
        </mxCell>
        <mxCell id="7mlOmqwxrpPTEg_H7IPm-2" value="手動リリース" style="edgeLabel;html=1;align=center;verticalAlign=middle;resizable=0;points=[];" vertex="1" connectable="0" parent="7mlOmqwxrpPTEg_H7IPm-1">
          <mxGeometry x="-0.8935" y="-2" relative="1" as="geometry">
            <mxPoint x="14" y="-13" as="offset" />
          </mxGeometry>
        </mxCell>
        <mxCell id="d3G8sBCb636XODliIDbv-10" style="edgeStyle=orthogonalEdgeStyle;rounded=0;orthogonalLoop=1;jettySize=auto;html=1;exitX=0;exitY=0.5;exitDx=0;exitDy=0;exitPerimeter=0;entryX=1;entryY=0.5;entryDx=0;entryDy=0;entryPerimeter=0;strokeWidth=3;strokeColor=#666666;dashed=1;dashPattern=1 1;" edge="1" parent="1" source="ojbDTQnioMnIqjVi7_HN-7" target="ojbDTQnioMnIqjVi7_HN-5">
          <mxGeometry relative="1" as="geometry">
            <Array as="points">
              <mxPoint x="140" y="421" />
              <mxPoint x="140" y="180" />
            </Array>
          </mxGeometry>
        </mxCell>
        <mxCell id="d3G8sBCb636XODliIDbv-11" value="(必要ならば)&lt;div&gt;修正差分の適用&lt;/div&gt;" style="edgeLabel;html=1;align=left;verticalAlign=middle;resizable=0;points=[];" vertex="1" connectable="0" parent="d3G8sBCb636XODliIDbv-10">
          <mxGeometry x="-0.6336" y="-2" relative="1" as="geometry">
            <mxPoint x="-22" y="21" as="offset" />
          </mxGeometry>
        </mxCell>
        <mxCell id="ojbDTQnioMnIqjVi7_HN-32" style="edgeStyle=orthogonalEdgeStyle;rounded=0;orthogonalLoop=1;jettySize=auto;html=1;exitX=0.5;exitY=1;exitDx=0;exitDy=0;exitPerimeter=0;entryX=-0.002;entryY=0.102;entryDx=0;entryDy=0;entryPerimeter=0;strokeWidth=3;jumpStyle=arc;" edge="1" parent="1" source="ojbDTQnioMnIqjVi7_HN-5" target="ojbDTQnioMnIqjVi7_HN-17">
          <mxGeometry relative="1" as="geometry" />
        </mxCell>
        <mxCell id="ojbDTQnioMnIqjVi7_HN-34" style="edgeStyle=orthogonalEdgeStyle;rounded=0;orthogonalLoop=1;jettySize=auto;html=1;exitX=0.5;exitY=0;exitDx=0;exitDy=0;exitPerimeter=0;entryX=0;entryY=0.25;entryDx=0;entryDy=0;strokeWidth=3;jumpStyle=arc;" edge="1" parent="1" source="ojbDTQnioMnIqjVi7_HN-35" target="ojbDTQnioMnIqjVi7_HN-17">
          <mxGeometry relative="1" as="geometry" />
        </mxCell>
        <mxCell id="8etigFABV0d6tOvESpwi-165" style="edgeStyle=orthogonalEdgeStyle;rounded=0;orthogonalLoop=1;jettySize=auto;html=1;exitX=0;exitY=0.5;exitDx=0;exitDy=0;entryX=1;entryY=0.5;entryDx=0;entryDy=0;entryPerimeter=0;strokeWidth=3;jumpStyle=arc;" parent="1" source="8etigFABV0d6tOvESpwi-160" target="8etigFABV0d6tOvESpwi-164" edge="1">
          <mxGeometry relative="1" as="geometry" />
        </mxCell>
        <mxCell id="d3G8sBCb636XODliIDbv-8" value="hotfix/リリース失敗" style="edgeLabel;html=1;align=center;verticalAlign=middle;resizable=0;points=[];" vertex="1" connectable="0" parent="8etigFABV0d6tOvESpwi-165">
          <mxGeometry x="0.4485" relative="1" as="geometry">
            <mxPoint x="-3" y="-16" as="offset" />
          </mxGeometry>
        </mxCell>
        <mxCell id="ojbDTQnioMnIqjVi7_HN-6" style="edgeStyle=orthogonalEdgeStyle;rounded=0;orthogonalLoop=1;jettySize=auto;html=1;exitX=0.855;exitY=0.855;exitDx=0;exitDy=0;exitPerimeter=0;entryX=0.5;entryY=0;entryDx=0;entryDy=0;strokeWidth=3;" edge="1" parent="1" source="ojbDTQnioMnIqjVi7_HN-7" target="ojbDTQnioMnIqjVi7_HN-23">
          <mxGeometry relative="1" as="geometry" />
        </mxCell>
        <mxCell id="pM1m3BmIEo-M1V_qtTZu-1" value="トリガー: マージ" style="edgeLabel;html=1;align=center;verticalAlign=middle;resizable=0;points=[];" vertex="1" connectable="0" parent="ojbDTQnioMnIqjVi7_HN-6">
          <mxGeometry x="-0.6411" y="-1" relative="1" as="geometry">
            <mxPoint x="18" y="9" as="offset" />
          </mxGeometry>
        </mxCell>
        <mxCell id="8etigFABV0d6tOvESpwi-99" style="edgeStyle=orthogonalEdgeStyle;rounded=0;orthogonalLoop=1;jettySize=auto;html=1;exitX=1;exitY=0.5;exitDx=0;exitDy=0;exitPerimeter=0;strokeWidth=3;entryX=0.5;entryY=0;entryDx=0;entryDy=0;" parent="1" source="8etigFABV0d6tOvESpwi-88" target="8etigFABV0d6tOvESpwi-155" edge="1">
          <mxGeometry relative="1" as="geometry" />
        </mxCell>
        <mxCell id="pM1m3BmIEo-M1V_qtTZu-2" value="トリガー: マージ" style="edgeLabel;html=1;align=center;verticalAlign=middle;resizable=0;points=[];" vertex="1" connectable="0" parent="8etigFABV0d6tOvESpwi-99">
          <mxGeometry x="-0.4227" y="-1" relative="1" as="geometry">
            <mxPoint x="6" y="10" as="offset" />
          </mxGeometry>
        </mxCell>
      </root>
    </mxGraphModel>
  </diagram>
  <diagram name="application-project" id="VP5YHbu1EWToxNYNkul1">
    <mxGraphModel dx="1303" dy="1118" grid="1" gridSize="10" guides="1" tooltips="1" connect="1" arrows="1" fold="1" page="1" pageScale="1" pageWidth="1169" pageHeight="827" math="0" shadow="0">
      <root>
        <mxCell id="YqaYBz-fNlxFGL_8uid2-0" />
        <mxCell id="YqaYBz-fNlxFGL_8uid2-1" parent="YqaYBz-fNlxFGL_8uid2-0" />
        <mxCell id="YqaYBz-fNlxFGL_8uid2-2" value="" style="rounded=0;whiteSpace=wrap;html=1;fillColor=none;movable=0;resizable=0;rotatable=0;deletable=0;editable=0;locked=1;connectable=0;" vertex="1" parent="YqaYBz-fNlxFGL_8uid2-1">
          <mxGeometry x="10" y="14" width="1150" height="796" as="geometry" />
        </mxCell>
        <mxCell id="YqaYBz-fNlxFGL_8uid2-3" value="&lt;div&gt;&amp;lt;Branch&amp;gt;&lt;br&gt;&lt;/div&gt;release" style="shape=umlLifeline;perimeter=lifelinePerimeter;whiteSpace=wrap;html=1;container=0;dropTarget=0;collapsible=0;recursiveResize=0;outlineConnect=0;portConstraint=eastwest;newEdgeStyle={&quot;edgeStyle&quot;:&quot;elbowEdgeStyle&quot;,&quot;elbow&quot;:&quot;vertical&quot;,&quot;curved&quot;:0,&quot;rounded&quot;:0};fillColor=#e51400;strokeColor=#666666;fontColor=#ffffff;" vertex="1" parent="YqaYBz-fNlxFGL_8uid2-1">
          <mxGeometry x="650" y="67" width="100" height="724" as="geometry" />
        </mxCell>
        <mxCell id="YqaYBz-fNlxFGL_8uid2-5" value="GitHub&lt;div&gt;Actions&lt;/div&gt;" style="shape=umlLifeline;perimeter=lifelinePerimeter;whiteSpace=wrap;html=1;container=0;dropTarget=0;collapsible=0;recursiveResize=0;outlineConnect=0;portConstraint=eastwest;newEdgeStyle={&quot;edgeStyle&quot;:&quot;elbowEdgeStyle&quot;,&quot;elbow&quot;:&quot;vertical&quot;,&quot;curved&quot;:0,&quot;rounded&quot;:0};fontColor=#ffffff;fillColor=#a20025;strokeColor=#990099;" vertex="1" parent="YqaYBz-fNlxFGL_8uid2-1">
          <mxGeometry x="770" y="67" width="100" height="724" as="geometry" />
        </mxCell>
        <mxCell id="YqaYBz-fNlxFGL_8uid2-6" value="&lt;div&gt;&amp;lt;Branch&amp;gt;&lt;br&gt;&lt;/div&gt;hotfix" style="shape=umlLifeline;perimeter=lifelinePerimeter;whiteSpace=wrap;html=1;container=0;dropTarget=0;collapsible=0;recursiveResize=0;outlineConnect=0;portConstraint=eastwest;newEdgeStyle={&quot;edgeStyle&quot;:&quot;elbowEdgeStyle&quot;,&quot;elbow&quot;:&quot;vertical&quot;,&quot;curved&quot;:0,&quot;rounded&quot;:0};fillColor=#f0a30a;fontColor=#FFFFFF;strokeColor=#666666;" vertex="1" parent="YqaYBz-fNlxFGL_8uid2-1">
          <mxGeometry x="530" y="67" width="100" height="720" as="geometry" />
        </mxCell>
        <mxCell id="YqaYBz-fNlxFGL_8uid2-7" value="" style="verticalLabelPosition=bottom;verticalAlign=top;html=1;strokeWidth=4;shape=mxgraph.flowchart.on-page_reference;plain-blue;gradientColor=#EA6B66;strokeColor=#B85450;fillColor=#F8CECC;" vertex="1" parent="YqaYBz-fNlxFGL_8uid2-1">
          <mxGeometry x="690" y="137" width="20" height="20" as="geometry" />
        </mxCell>
        <mxCell id="YqaYBz-fNlxFGL_8uid2-8" value="" style="verticalLabelPosition=bottom;verticalAlign=top;html=1;strokeWidth=4;shape=mxgraph.flowchart.on-page_reference;strokeColor=#b46504;fillColor=#fad7ac;" vertex="1" parent="YqaYBz-fNlxFGL_8uid2-1">
          <mxGeometry x="570" y="171" width="20" height="20" as="geometry" />
        </mxCell>
        <mxCell id="YqaYBz-fNlxFGL_8uid2-9" style="edgeStyle=orthogonalEdgeStyle;rounded=0;orthogonalLoop=1;jettySize=auto;html=1;exitX=1;exitY=0.5;exitDx=0;exitDy=0;entryX=1;entryY=0.25;entryDx=0;entryDy=0;strokeWidth=3;" edge="1" parent="YqaYBz-fNlxFGL_8uid2-1" source="YqaYBz-fNlxFGL_8uid2-20" target="YqaYBz-fNlxFGL_8uid2-21">
          <mxGeometry relative="1" as="geometry" />
        </mxCell>
        <mxCell id="YqaYBz-fNlxFGL_8uid2-10" value="CI/CD" style="swimlane;fontStyle=0;childLayout=stackLayout;horizontal=1;startSize=30;horizontalStack=0;resizeParent=1;resizeParentMax=0;resizeLast=0;collapsible=1;marginBottom=0;whiteSpace=wrap;html=1;swimlaneFillColor=default;" vertex="1" parent="YqaYBz-fNlxFGL_8uid2-1">
          <mxGeometry x="780" y="269" width="80" height="90" as="geometry">
            <mxRectangle x="300" y="255" width="80" height="30" as="alternateBounds" />
          </mxGeometry>
        </mxCell>
        <mxCell id="YqaYBz-fNlxFGL_8uid2-11" value="マージ前テスト" style="text;strokeColor=none;fillColor=none;align=left;verticalAlign=middle;spacingLeft=4;spacingRight=4;overflow=hidden;points=[[0,0.5],[1,0.5]];portConstraint=eastwest;rotatable=0;whiteSpace=wrap;html=1;fontSize=10;" vertex="1" parent="YqaYBz-fNlxFGL_8uid2-10">
          <mxGeometry y="30" width="80" height="30" as="geometry" />
        </mxCell>
        <mxCell id="YqaYBz-fNlxFGL_8uid2-12" value="脆弱性検査" style="text;strokeColor=none;fillColor=none;align=left;verticalAlign=middle;spacingLeft=4;spacingRight=4;overflow=hidden;points=[[0,0.5],[1,0.5]];portConstraint=eastwest;rotatable=0;whiteSpace=wrap;html=1;" vertex="1" parent="YqaYBz-fNlxFGL_8uid2-10">
          <mxGeometry y="60" width="80" height="30" as="geometry" />
        </mxCell>
        <mxCell id="YqaYBz-fNlxFGL_8uid2-13" style="edgeStyle=orthogonalEdgeStyle;rounded=0;orthogonalLoop=1;jettySize=auto;html=1;exitX=1;exitY=0.5;exitDx=0;exitDy=0;entryX=0.5;entryY=0;entryDx=0;entryDy=0;strokeWidth=3;" edge="1" parent="YqaYBz-fNlxFGL_8uid2-1" source="YqaYBz-fNlxFGL_8uid2-19" target="YqaYBz-fNlxFGL_8uid2-10">
          <mxGeometry relative="1" as="geometry" />
        </mxCell>
        <mxCell id="YqaYBz-fNlxFGL_8uid2-14" value="トリガー: プルリクエスト" style="edgeLabel;html=1;align=center;verticalAlign=middle;resizable=0;points=[];" vertex="1" connectable="0" parent="YqaYBz-fNlxFGL_8uid2-13">
          <mxGeometry x="-0.2717" y="2" relative="1" as="geometry">
            <mxPoint x="28" y="-10" as="offset" />
          </mxGeometry>
        </mxCell>
        <mxCell id="YqaYBz-fNlxFGL_8uid2-15" style="edgeStyle=orthogonalEdgeStyle;rounded=0;orthogonalLoop=1;jettySize=auto;html=1;exitX=0.5;exitY=1;exitDx=0;exitDy=0;entryX=1;entryY=0.667;entryDx=0;entryDy=0;entryPerimeter=0;strokeWidth=3;" edge="1" parent="YqaYBz-fNlxFGL_8uid2-1" source="YqaYBz-fNlxFGL_8uid2-10" target="YqaYBz-fNlxFGL_8uid2-21">
          <mxGeometry relative="1" as="geometry" />
        </mxCell>
        <mxCell id="YqaYBz-fNlxFGL_8uid2-16" value="" style="verticalLabelPosition=bottom;verticalAlign=top;html=1;strokeWidth=4;shape=mxgraph.flowchart.on-page_reference;plain-blue;gradientColor=#EA6B66;strokeColor=#B85450;fillColor=#F8CECC;" vertex="1" parent="YqaYBz-fNlxFGL_8uid2-1">
          <mxGeometry x="690" y="491" width="20" height="20" as="geometry" />
        </mxCell>
        <mxCell id="YqaYBz-fNlxFGL_8uid2-17" style="edgeStyle=orthogonalEdgeStyle;rounded=0;orthogonalLoop=1;jettySize=auto;html=1;exitX=0.5;exitY=1;exitDx=0;exitDy=0;exitPerimeter=0;entryX=0.5;entryY=0;entryDx=0;entryDy=0;entryPerimeter=0;strokeWidth=3;" edge="1" parent="YqaYBz-fNlxFGL_8uid2-1" source="YqaYBz-fNlxFGL_8uid2-7" target="YqaYBz-fNlxFGL_8uid2-16">
          <mxGeometry relative="1" as="geometry" />
        </mxCell>
        <mxCell id="YqaYBz-fNlxFGL_8uid2-18" value="Pull Request" style="swimlane;fontStyle=0;childLayout=stackLayout;horizontal=1;startSize=30;horizontalStack=0;resizeParent=1;resizeParentMax=0;resizeLast=0;collapsible=1;marginBottom=0;whiteSpace=wrap;html=1;swimlaneFillColor=default;verticalAlign=middle;" vertex="1" parent="YqaYBz-fNlxFGL_8uid2-1">
          <mxGeometry x="660" y="200" width="80" height="120" as="geometry">
            <mxRectangle x="180" y="190" width="80" height="30" as="alternateBounds" />
          </mxGeometry>
        </mxCell>
        <mxCell id="YqaYBz-fNlxFGL_8uid2-19" value="CI/CD 実行" style="text;strokeColor=none;fillColor=none;align=left;verticalAlign=middle;spacingLeft=4;spacingRight=4;overflow=hidden;points=[[0,0.5],[1,0.5]];portConstraint=eastwest;rotatable=0;whiteSpace=wrap;html=1;" vertex="1" parent="YqaYBz-fNlxFGL_8uid2-18">
          <mxGeometry y="30" width="80" height="30" as="geometry" />
        </mxCell>
        <mxCell id="VC65Xf6tA8a3YoGSplrs-3" value="動作確認" style="text;strokeColor=none;fillColor=none;align=left;verticalAlign=middle;spacingLeft=4;spacingRight=4;overflow=hidden;points=[[0,0.5],[1,0.5]];portConstraint=eastwest;rotatable=0;whiteSpace=wrap;html=1;" vertex="1" parent="YqaYBz-fNlxFGL_8uid2-18">
          <mxGeometry y="60" width="80" height="30" as="geometry" />
        </mxCell>
        <mxCell id="YqaYBz-fNlxFGL_8uid2-20" value="レビュー" style="text;strokeColor=none;fillColor=none;align=left;verticalAlign=middle;spacingLeft=4;spacingRight=4;overflow=hidden;points=[[0,0.5],[1,0.5]];portConstraint=eastwest;rotatable=0;whiteSpace=wrap;html=1;" vertex="1" parent="YqaYBz-fNlxFGL_8uid2-18">
          <mxGeometry y="90" width="80" height="30" as="geometry" />
        </mxCell>
        <mxCell id="YqaYBz-fNlxFGL_8uid2-21" value="承認" style="rounded=1;whiteSpace=wrap;html=1;arcSize=50;" vertex="1" parent="YqaYBz-fNlxFGL_8uid2-1">
          <mxGeometry x="660" y="359" width="80" height="30" as="geometry" />
        </mxCell>
        <mxCell id="YqaYBz-fNlxFGL_8uid2-23" value="CI/CD" style="swimlane;fontStyle=0;childLayout=stackLayout;horizontal=1;startSize=30;horizontalStack=0;resizeParent=1;resizeParentMax=0;resizeLast=0;collapsible=1;marginBottom=0;whiteSpace=wrap;html=1;swimlaneFillColor=default;" vertex="1" parent="YqaYBz-fNlxFGL_8uid2-1">
          <mxGeometry x="780" y="711" width="80" height="70" as="geometry">
            <mxRectangle x="660" y="647" width="80" height="30" as="alternateBounds" />
          </mxGeometry>
        </mxCell>
        <mxCell id="YqaYBz-fNlxFGL_8uid2-24" value="&lt;font style=&quot;font-size: 10px;&quot;&gt;パッケージ&lt;br&gt;ビルド&lt;/font&gt;" style="text;strokeColor=none;fillColor=none;align=left;verticalAlign=middle;spacingLeft=4;spacingRight=4;overflow=hidden;points=[[0,0.5],[1,0.5]];portConstraint=eastwest;rotatable=0;whiteSpace=wrap;html=1;" vertex="1" parent="YqaYBz-fNlxFGL_8uid2-23">
          <mxGeometry y="30" width="80" height="40" as="geometry" />
        </mxCell>
        <mxCell id="YqaYBz-fNlxFGL_8uid2-25" style="edgeStyle=orthogonalEdgeStyle;rounded=0;orthogonalLoop=1;jettySize=auto;html=1;exitX=0.5;exitY=1;exitDx=0;exitDy=0;exitPerimeter=0;entryX=0.5;entryY=0;entryDx=0;entryDy=0;entryPerimeter=0;strokeWidth=3;endArrow=none;endFill=0;" edge="1" parent="YqaYBz-fNlxFGL_8uid2-1" source="YqaYBz-fNlxFGL_8uid2-16">
          <mxGeometry relative="1" as="geometry">
            <mxPoint x="700" y="792.0000000000002" as="targetPoint" />
          </mxGeometry>
        </mxCell>
        <mxCell id="YqaYBz-fNlxFGL_8uid2-26" style="edgeStyle=orthogonalEdgeStyle;rounded=0;orthogonalLoop=1;jettySize=auto;html=1;exitX=0.5;exitY=0;exitDx=0;exitDy=0;exitPerimeter=0;strokeWidth=3;endArrow=none;endFill=0;" edge="1" parent="YqaYBz-fNlxFGL_8uid2-1" source="YqaYBz-fNlxFGL_8uid2-7">
          <mxGeometry relative="1" as="geometry">
            <mxPoint x="700" y="107" as="targetPoint" />
          </mxGeometry>
        </mxCell>
        <mxCell id="YqaYBz-fNlxFGL_8uid2-27" style="edgeStyle=orthogonalEdgeStyle;rounded=0;orthogonalLoop=1;jettySize=auto;html=1;exitX=0.5;exitY=1;exitDx=0;exitDy=0;strokeWidth=3;" edge="1" parent="YqaYBz-fNlxFGL_8uid2-1" source="YqaYBz-fNlxFGL_8uid2-29" target="YqaYBz-fNlxFGL_8uid2-31">
          <mxGeometry relative="1" as="geometry" />
        </mxCell>
        <mxCell id="YqaYBz-fNlxFGL_8uid2-28" value="NG" style="edgeLabel;html=1;align=center;verticalAlign=middle;resizable=0;points=[];" vertex="1" connectable="0" parent="YqaYBz-fNlxFGL_8uid2-27">
          <mxGeometry x="0.6611" y="3" relative="1" as="geometry">
            <mxPoint x="16" y="-2" as="offset" />
          </mxGeometry>
        </mxCell>
        <mxCell id="YqaYBz-fNlxFGL_8uid2-29" value="CI/CD" style="swimlane;fontStyle=0;childLayout=stackLayout;horizontal=1;startSize=30;horizontalStack=0;resizeParent=1;resizeParentMax=0;resizeLast=0;collapsible=1;marginBottom=0;whiteSpace=wrap;html=1;swimlaneFillColor=default;" vertex="1" parent="YqaYBz-fNlxFGL_8uid2-1">
          <mxGeometry x="780" y="521" width="80" height="60" as="geometry">
            <mxRectangle x="660" y="457" width="80" height="30" as="alternateBounds" />
          </mxGeometry>
        </mxCell>
        <mxCell id="YqaYBz-fNlxFGL_8uid2-30" value="マージ後テスト" style="text;strokeColor=none;fillColor=none;align=left;verticalAlign=middle;spacingLeft=4;spacingRight=4;overflow=hidden;points=[[0,0.5],[1,0.5]];portConstraint=eastwest;rotatable=0;whiteSpace=wrap;html=1;fontSize=10;" vertex="1" parent="YqaYBz-fNlxFGL_8uid2-29">
          <mxGeometry y="30" width="80" height="30" as="geometry" />
        </mxCell>
        <mxCell id="YqaYBz-fNlxFGL_8uid2-31" value="CI/CD" style="swimlane;fontStyle=0;childLayout=stackLayout;horizontal=1;startSize=30;horizontalStack=0;resizeParent=1;resizeParentMax=0;resizeLast=0;collapsible=1;marginBottom=0;whiteSpace=wrap;html=1;swimlaneFillColor=default;" vertex="1" parent="YqaYBz-fNlxFGL_8uid2-1">
          <mxGeometry x="780" y="603" width="80" height="90" as="geometry">
            <mxRectangle x="300" y="255" width="80" height="30" as="alternateBounds" />
          </mxGeometry>
        </mxCell>
        <mxCell id="YqaYBz-fNlxFGL_8uid2-32" value="Isuue 作成" style="text;strokeColor=none;fillColor=none;align=left;verticalAlign=middle;spacingLeft=4;spacingRight=4;overflow=hidden;points=[[0,0.5],[1,0.5]];portConstraint=eastwest;rotatable=0;whiteSpace=wrap;html=1;" vertex="1" parent="YqaYBz-fNlxFGL_8uid2-31">
          <mxGeometry y="30" width="80" height="30" as="geometry" />
        </mxCell>
        <mxCell id="YqaYBz-fNlxFGL_8uid2-33" value="&lt;span style=&quot;color: rgb(255, 255, 255); text-align: center;&quot;&gt;Branch 作成&lt;/span&gt;" style="text;strokeColor=none;fillColor=none;align=left;verticalAlign=middle;spacingLeft=4;spacingRight=4;overflow=hidden;points=[[0,0.5],[1,0.5]];portConstraint=eastwest;rotatable=0;whiteSpace=wrap;html=1;" vertex="1" parent="YqaYBz-fNlxFGL_8uid2-31">
          <mxGeometry y="60" width="80" height="30" as="geometry" />
        </mxCell>
        <mxCell id="YqaYBz-fNlxFGL_8uid2-34" value="" style="verticalLabelPosition=bottom;verticalAlign=top;html=1;strokeWidth=4;shape=mxgraph.flowchart.on-page_reference;strokeColor=#b46504;fillColor=#fad7ac;" vertex="1" parent="YqaYBz-fNlxFGL_8uid2-1">
          <mxGeometry x="570" y="667" width="20" height="20" as="geometry" />
        </mxCell>
        <mxCell id="YqaYBz-fNlxFGL_8uid2-35" style="edgeStyle=elbowEdgeStyle;rounded=0;orthogonalLoop=1;jettySize=auto;html=1;exitX=0.5;exitY=0;exitDx=0;exitDy=0;exitPerimeter=0;entryX=0;entryY=0.328;entryDx=0;entryDy=0;strokeWidth=3;entryPerimeter=0;" edge="1" parent="YqaYBz-fNlxFGL_8uid2-1" source="YqaYBz-fNlxFGL_8uid2-34" target="YqaYBz-fNlxFGL_8uid2-18">
          <mxGeometry relative="1" as="geometry">
            <mxPoint x="580" y="657.5" as="sourcePoint" />
            <mxPoint x="660" y="293" as="targetPoint" />
            <Array as="points">
              <mxPoint x="580" y="443.5" />
            </Array>
          </mxGeometry>
        </mxCell>
        <mxCell id="YqaYBz-fNlxFGL_8uid2-39" style="edgeStyle=orthogonalEdgeStyle;rounded=0;orthogonalLoop=1;jettySize=auto;html=1;exitX=1;exitY=0.5;exitDx=0;exitDy=0;entryX=0;entryY=0.5;entryDx=0;entryDy=0;strokeWidth=3;jumpStyle=arc;" edge="1" parent="YqaYBz-fNlxFGL_8uid2-1" source="YqaYBz-fNlxFGL_8uid2-24" target="7NVtVOvOwvuB1zy33Tek-15">
          <mxGeometry relative="1" as="geometry">
            <mxPoint x="900" y="760.9999999999998" as="targetPoint" />
          </mxGeometry>
        </mxCell>
        <mxCell id="YqaYBz-fNlxFGL_8uid2-40" style="edgeStyle=orthogonalEdgeStyle;rounded=0;orthogonalLoop=1;jettySize=auto;html=1;exitX=0;exitY=0.5;exitDx=0;exitDy=0;exitPerimeter=0;entryX=0.5;entryY=0;entryDx=0;entryDy=0;entryPerimeter=0;strokeWidth=3;" edge="1" parent="YqaYBz-fNlxFGL_8uid2-1" source="YqaYBz-fNlxFGL_8uid2-7" target="YqaYBz-fNlxFGL_8uid2-8">
          <mxGeometry relative="1" as="geometry" />
        </mxCell>
        <mxCell id="YqaYBz-fNlxFGL_8uid2-41" value="緊急要件 発生" style="edgeLabel;html=1;align=center;verticalAlign=middle;resizable=0;points=[];" vertex="1" connectable="0" parent="YqaYBz-fNlxFGL_8uid2-40">
          <mxGeometry x="-0.4957" y="-1" relative="1" as="geometry">
            <mxPoint y="-11" as="offset" />
          </mxGeometry>
        </mxCell>
        <mxCell id="YqaYBz-fNlxFGL_8uid2-42" style="edgeStyle=orthogonalEdgeStyle;rounded=0;orthogonalLoop=1;jettySize=auto;html=1;exitX=0.5;exitY=1;exitDx=0;exitDy=0;exitPerimeter=0;entryX=0;entryY=0;entryDx=0;entryDy=0;strokeWidth=3;" edge="1" parent="YqaYBz-fNlxFGL_8uid2-1" source="YqaYBz-fNlxFGL_8uid2-8" target="YqaYBz-fNlxFGL_8uid2-18">
          <mxGeometry relative="1" as="geometry">
            <Array as="points">
              <mxPoint x="580" y="200" />
            </Array>
          </mxGeometry>
        </mxCell>
        <mxCell id="YqaYBz-fNlxFGL_8uid2-43" value="&lt;font style=&quot;font-size: 18px;&quot;&gt;アプリケーションプロジェクト ブランチ戦略　概要図&lt;/font&gt;" style="shape=process;whiteSpace=wrap;html=1;backgroundOutline=1;" vertex="1" parent="YqaYBz-fNlxFGL_8uid2-1">
          <mxGeometry x="10" y="14" width="867" height="35" as="geometry" />
        </mxCell>
        <mxCell id="YqaYBz-fNlxFGL_8uid2-44" value="&amp;nbsp;Created by&lt;div&gt;&amp;nbsp; Yuu Konno&lt;/div&gt;&lt;div&gt;&amp;nbsp; &amp;nbsp;(ateliers.dev)&lt;/div&gt;&lt;div&gt;&lt;br&gt;&lt;/div&gt;&lt;div&gt;&amp;nbsp;Create Date:&lt;/div&gt;&lt;div&gt;&amp;nbsp; 2024/04/30&lt;br&gt;&lt;/div&gt;&lt;div&gt;&lt;br&gt;&lt;/div&gt;&lt;div&gt;&amp;nbsp;Update Date:&lt;/div&gt;&lt;div&gt;&amp;nbsp; 2024/04/30&lt;br&gt;&lt;/div&gt;&lt;div&gt;&lt;br&gt;&lt;/div&gt;&lt;div&gt;&amp;nbsp;Flow Version:&lt;/div&gt;&lt;div&gt;&amp;nbsp; 1.0&lt;/div&gt;" style="shape=note2;boundedLbl=1;whiteSpace=wrap;html=1;size=25;verticalAlign=top;align=left;spacingLeft=5;" vertex="1" parent="YqaYBz-fNlxFGL_8uid2-1">
          <mxGeometry x="1040" y="580" width="110" height="222" as="geometry" />
        </mxCell>
        <mxCell id="YqaYBz-fNlxFGL_8uid2-45" value="&amp;nbsp;draw.io" style="resizeWidth=1;part=1;strokeColor=none;fillColor=none;align=left;spacingLeft=5;html=1;whiteSpace=wrap;" vertex="1" parent="YqaYBz-fNlxFGL_8uid2-44">
          <mxGeometry width="110" height="25" relative="1" as="geometry" />
        </mxCell>
        <mxCell id="YqaYBz-fNlxFGL_8uid2-46" value="&amp;lt;Branch&amp;gt;&lt;div&gt;feature&lt;/div&gt;" style="shape=umlLifeline;perimeter=lifelinePerimeter;whiteSpace=wrap;html=1;container=0;dropTarget=0;collapsible=0;recursiveResize=0;outlineConnect=0;portConstraint=eastwest;newEdgeStyle={&quot;edgeStyle&quot;:&quot;elbowEdgeStyle&quot;,&quot;elbow&quot;:&quot;vertical&quot;,&quot;curved&quot;:0,&quot;rounded&quot;:0};fillColor=#6d8764;fontColor=#ffffff;strokeColor=#666666;" vertex="1" parent="YqaYBz-fNlxFGL_8uid2-1">
          <mxGeometry x="50" y="66" width="100" height="720" as="geometry" />
        </mxCell>
        <mxCell id="YqaYBz-fNlxFGL_8uid2-47" value="&lt;div&gt;&amp;lt;Branch&amp;gt;&lt;br&gt;&lt;/div&gt;master" style="shape=umlLifeline;perimeter=lifelinePerimeter;whiteSpace=wrap;html=1;container=0;dropTarget=0;collapsible=0;recursiveResize=0;outlineConnect=0;portConstraint=eastwest;newEdgeStyle={&quot;edgeStyle&quot;:&quot;elbowEdgeStyle&quot;,&quot;elbow&quot;:&quot;vertical&quot;,&quot;curved&quot;:0,&quot;rounded&quot;:0};fillColor=#647687;fontColor=#ffffff;strokeColor=#666666;" vertex="1" parent="YqaYBz-fNlxFGL_8uid2-1">
          <mxGeometry x="170" y="66" width="100" height="726" as="geometry" />
        </mxCell>
        <mxCell id="YqaYBz-fNlxFGL_8uid2-48" value="GitHub&lt;div&gt;Actions&lt;/div&gt;" style="shape=umlLifeline;perimeter=lifelinePerimeter;whiteSpace=wrap;html=1;container=0;dropTarget=0;collapsible=0;recursiveResize=0;outlineConnect=0;portConstraint=eastwest;newEdgeStyle={&quot;edgeStyle&quot;:&quot;elbowEdgeStyle&quot;,&quot;elbow&quot;:&quot;vertical&quot;,&quot;curved&quot;:0,&quot;rounded&quot;:0};fillColor=#a20025;strokeColor=#990099;fontColor=#ffffff;strokeWidth=1;" vertex="1" parent="YqaYBz-fNlxFGL_8uid2-1">
          <mxGeometry x="290" y="66" width="100" height="720" as="geometry" />
        </mxCell>
        <mxCell id="YqaYBz-fNlxFGL_8uid2-49" value="" style="verticalLabelPosition=bottom;verticalAlign=top;html=1;strokeWidth=4;shape=mxgraph.flowchart.on-page_reference;strokeColor=#10739e;fillColor=#b1ddf0;" vertex="1" parent="YqaYBz-fNlxFGL_8uid2-1">
          <mxGeometry x="210" y="136" width="20" height="20" as="geometry" />
        </mxCell>
        <mxCell id="YqaYBz-fNlxFGL_8uid2-50" value="" style="verticalLabelPosition=bottom;verticalAlign=top;html=1;strokeWidth=4;shape=mxgraph.flowchart.on-page_reference;strokeColor=#0e8088;fillColor=#b0e3e6;" vertex="1" parent="YqaYBz-fNlxFGL_8uid2-1">
          <mxGeometry x="90" y="170" width="20" height="20" as="geometry" />
        </mxCell>
        <mxCell id="YqaYBz-fNlxFGL_8uid2-51" value="" style="verticalLabelPosition=bottom;verticalAlign=top;html=1;strokeWidth=4;shape=mxgraph.flowchart.on-page_reference;strokeColor=#10739e;fillColor=#b1ddf0;" vertex="1" parent="YqaYBz-fNlxFGL_8uid2-1">
          <mxGeometry x="210" y="411" width="20" height="20" as="geometry" />
        </mxCell>
        <mxCell id="YqaYBz-fNlxFGL_8uid2-52" style="edgeStyle=orthogonalEdgeStyle;rounded=0;orthogonalLoop=1;jettySize=auto;html=1;exitX=0.5;exitY=1;exitDx=0;exitDy=0;entryX=1;entryY=0.75;entryDx=0;entryDy=0;strokeWidth=3;" edge="1" parent="YqaYBz-fNlxFGL_8uid2-1" source="YqaYBz-fNlxFGL_8uid2-53" target="YqaYBz-fNlxFGL_8uid2-64">
          <mxGeometry relative="1" as="geometry" />
        </mxCell>
        <mxCell id="YqaYBz-fNlxFGL_8uid2-53" value="CI/CD" style="swimlane;fontStyle=0;childLayout=stackLayout;horizontal=1;startSize=30;horizontalStack=0;resizeParent=1;resizeParentMax=0;resizeLast=0;collapsible=1;marginBottom=0;whiteSpace=wrap;html=1;swimlaneFillColor=default;" vertex="1" parent="YqaYBz-fNlxFGL_8uid2-1">
          <mxGeometry x="300" y="270" width="80" height="90" as="geometry">
            <mxRectangle x="300" y="263" width="80" height="30" as="alternateBounds" />
          </mxGeometry>
        </mxCell>
        <mxCell id="YqaYBz-fNlxFGL_8uid2-54" value="マージ前テスト" style="text;strokeColor=none;fillColor=none;align=left;verticalAlign=middle;spacingLeft=4;spacingRight=4;overflow=hidden;points=[[0,0.5],[1,0.5]];portConstraint=eastwest;rotatable=0;whiteSpace=wrap;html=1;fontSize=10;" vertex="1" parent="YqaYBz-fNlxFGL_8uid2-53">
          <mxGeometry y="30" width="80" height="30" as="geometry" />
        </mxCell>
        <mxCell id="YqaYBz-fNlxFGL_8uid2-55" value="脆弱性検査" style="text;strokeColor=none;fillColor=none;align=left;verticalAlign=middle;spacingLeft=4;spacingRight=4;overflow=hidden;points=[[0,0.5],[1,0.5]];portConstraint=eastwest;rotatable=0;whiteSpace=wrap;html=1;" vertex="1" parent="YqaYBz-fNlxFGL_8uid2-53">
          <mxGeometry y="60" width="80" height="30" as="geometry" />
        </mxCell>
        <mxCell id="YqaYBz-fNlxFGL_8uid2-56" style="edgeStyle=orthogonalEdgeStyle;rounded=0;orthogonalLoop=1;jettySize=auto;html=1;exitX=0.5;exitY=1;exitDx=0;exitDy=0;exitPerimeter=0;entryX=0.5;entryY=0;entryDx=0;entryDy=0;entryPerimeter=0;strokeWidth=3;endArrow=none;endFill=0;" edge="1" parent="YqaYBz-fNlxFGL_8uid2-1" source="YqaYBz-fNlxFGL_8uid2-51">
          <mxGeometry relative="1" as="geometry">
            <mxPoint x="220" y="796" as="targetPoint" />
          </mxGeometry>
        </mxCell>
        <mxCell id="YqaYBz-fNlxFGL_8uid2-57" style="edgeStyle=orthogonalEdgeStyle;rounded=0;orthogonalLoop=1;jettySize=auto;html=1;exitX=0.5;exitY=0;exitDx=0;exitDy=0;exitPerimeter=0;strokeWidth=3;endArrow=none;endFill=0;" edge="1" parent="YqaYBz-fNlxFGL_8uid2-1" source="YqaYBz-fNlxFGL_8uid2-49">
          <mxGeometry relative="1" as="geometry">
            <mxPoint x="220" y="106" as="targetPoint" />
          </mxGeometry>
        </mxCell>
        <mxCell id="YqaYBz-fNlxFGL_8uid2-58" style="edgeStyle=orthogonalEdgeStyle;rounded=0;orthogonalLoop=1;jettySize=auto;html=1;exitX=0;exitY=0.5;exitDx=0;exitDy=0;exitPerimeter=0;entryX=0.5;entryY=0;entryDx=0;entryDy=0;entryPerimeter=0;strokeWidth=3;" edge="1" parent="YqaYBz-fNlxFGL_8uid2-1" source="YqaYBz-fNlxFGL_8uid2-49" target="YqaYBz-fNlxFGL_8uid2-50">
          <mxGeometry relative="1" as="geometry" />
        </mxCell>
        <mxCell id="YqaYBz-fNlxFGL_8uid2-59" value="開発要件 発生" style="edgeLabel;html=1;align=center;verticalAlign=middle;resizable=0;points=[];" vertex="1" connectable="0" parent="YqaYBz-fNlxFGL_8uid2-58">
          <mxGeometry x="-0.5224" y="2" relative="1" as="geometry">
            <mxPoint x="-10" y="-13" as="offset" />
          </mxGeometry>
        </mxCell>
        <mxCell id="YqaYBz-fNlxFGL_8uid2-60" style="edgeStyle=orthogonalEdgeStyle;rounded=0;orthogonalLoop=1;jettySize=auto;html=1;exitX=0.5;exitY=1;exitDx=0;exitDy=0;exitPerimeter=0;entryX=0.5;entryY=0;entryDx=0;entryDy=0;entryPerimeter=0;strokeWidth=3;" edge="1" parent="YqaYBz-fNlxFGL_8uid2-1" source="YqaYBz-fNlxFGL_8uid2-49" target="YqaYBz-fNlxFGL_8uid2-51">
          <mxGeometry relative="1" as="geometry">
            <mxPoint x="220" y="320" as="sourcePoint" />
          </mxGeometry>
        </mxCell>
        <mxCell id="YqaYBz-fNlxFGL_8uid2-61" value="&lt;div&gt;&lt;span style=&quot;background-color: initial;&quot;&gt;Pull Request&lt;/span&gt;&lt;br&gt;&lt;/div&gt;" style="swimlane;fontStyle=0;childLayout=stackLayout;horizontal=1;startSize=30;horizontalStack=0;resizeParent=1;resizeParentMax=0;resizeLast=0;collapsible=1;marginBottom=0;whiteSpace=wrap;html=1;swimlaneFillColor=default;verticalAlign=middle;" vertex="1" parent="YqaYBz-fNlxFGL_8uid2-1">
          <mxGeometry x="180" y="200" width="80" height="90" as="geometry">
            <mxRectangle x="180" y="190" width="80" height="30" as="alternateBounds" />
          </mxGeometry>
        </mxCell>
        <mxCell id="YqaYBz-fNlxFGL_8uid2-62" value="CI/CD 実行" style="text;strokeColor=none;fillColor=none;align=left;verticalAlign=middle;spacingLeft=4;spacingRight=4;overflow=hidden;points=[[0,0.5],[1,0.5]];portConstraint=eastwest;rotatable=0;whiteSpace=wrap;html=1;" vertex="1" parent="YqaYBz-fNlxFGL_8uid2-61">
          <mxGeometry y="30" width="80" height="30" as="geometry" />
        </mxCell>
        <mxCell id="YqaYBz-fNlxFGL_8uid2-63" value="レビュー" style="text;strokeColor=none;fillColor=none;align=left;verticalAlign=middle;spacingLeft=4;spacingRight=4;overflow=hidden;points=[[0,0.5],[1,0.5]];portConstraint=eastwest;rotatable=0;whiteSpace=wrap;html=1;" vertex="1" parent="YqaYBz-fNlxFGL_8uid2-61">
          <mxGeometry y="60" width="80" height="30" as="geometry" />
        </mxCell>
        <mxCell id="YqaYBz-fNlxFGL_8uid2-64" value="承認" style="rounded=1;whiteSpace=wrap;html=1;arcSize=50;" vertex="1" parent="YqaYBz-fNlxFGL_8uid2-1">
          <mxGeometry x="180" y="359" width="80" height="30" as="geometry" />
        </mxCell>
        <mxCell id="YqaYBz-fNlxFGL_8uid2-65" style="edgeStyle=orthogonalEdgeStyle;rounded=0;orthogonalLoop=1;jettySize=auto;html=1;exitX=0.5;exitY=1;exitDx=0;exitDy=0;strokeWidth=3;" edge="1" parent="YqaYBz-fNlxFGL_8uid2-1" source="YqaYBz-fNlxFGL_8uid2-67" target="YqaYBz-fNlxFGL_8uid2-69">
          <mxGeometry relative="1" as="geometry" />
        </mxCell>
        <mxCell id="YqaYBz-fNlxFGL_8uid2-66" value="NG" style="edgeLabel;html=1;align=center;verticalAlign=middle;resizable=0;points=[];" vertex="1" connectable="0" parent="YqaYBz-fNlxFGL_8uid2-65">
          <mxGeometry x="0.4736" relative="1" as="geometry">
            <mxPoint x="18" y="2" as="offset" />
          </mxGeometry>
        </mxCell>
        <mxCell id="YqaYBz-fNlxFGL_8uid2-67" value="CI/CD" style="swimlane;fontStyle=0;childLayout=stackLayout;horizontal=1;startSize=30;horizontalStack=0;resizeParent=1;resizeParentMax=0;resizeLast=0;collapsible=1;marginBottom=0;whiteSpace=wrap;html=1;swimlaneFillColor=default;" vertex="1" parent="YqaYBz-fNlxFGL_8uid2-1">
          <mxGeometry x="300" y="455" width="80" height="60" as="geometry">
            <mxRectangle x="300" y="455" width="80" height="30" as="alternateBounds" />
          </mxGeometry>
        </mxCell>
        <mxCell id="YqaYBz-fNlxFGL_8uid2-68" value="マージ後テスト" style="text;strokeColor=none;fillColor=none;align=left;verticalAlign=middle;spacingLeft=4;spacingRight=4;overflow=hidden;points=[[0,0.5],[1,0.5]];portConstraint=eastwest;rotatable=0;whiteSpace=wrap;html=1;fontSize=10;" vertex="1" parent="YqaYBz-fNlxFGL_8uid2-67">
          <mxGeometry y="30" width="80" height="30" as="geometry" />
        </mxCell>
        <mxCell id="YqaYBz-fNlxFGL_8uid2-69" value="CI/CD" style="swimlane;fontStyle=0;childLayout=stackLayout;horizontal=1;startSize=30;horizontalStack=0;resizeParent=1;resizeParentMax=0;resizeLast=0;collapsible=1;marginBottom=0;whiteSpace=wrap;html=1;swimlaneFillColor=default;" vertex="1" parent="YqaYBz-fNlxFGL_8uid2-1">
          <mxGeometry x="300" y="540" width="80" height="90" as="geometry">
            <mxRectangle x="300" y="255" width="80" height="30" as="alternateBounds" />
          </mxGeometry>
        </mxCell>
        <mxCell id="YqaYBz-fNlxFGL_8uid2-70" value="Isuue 作成" style="text;strokeColor=none;fillColor=none;align=left;verticalAlign=middle;spacingLeft=4;spacingRight=4;overflow=hidden;points=[[0,0.5],[1,0.5]];portConstraint=eastwest;rotatable=0;whiteSpace=wrap;html=1;" vertex="1" parent="YqaYBz-fNlxFGL_8uid2-69">
          <mxGeometry y="30" width="80" height="30" as="geometry" />
        </mxCell>
        <mxCell id="YqaYBz-fNlxFGL_8uid2-71" value="&lt;span style=&quot;color: rgb(255, 255, 255); text-align: center;&quot;&gt;Branch 作成&lt;/span&gt;" style="text;strokeColor=none;fillColor=none;align=left;verticalAlign=middle;spacingLeft=4;spacingRight=4;overflow=hidden;points=[[0,0.5],[1,0.5]];portConstraint=eastwest;rotatable=0;whiteSpace=wrap;html=1;" vertex="1" parent="YqaYBz-fNlxFGL_8uid2-69">
          <mxGeometry y="60" width="80" height="30" as="geometry" />
        </mxCell>
        <mxCell id="YqaYBz-fNlxFGL_8uid2-72" style="edgeStyle=orthogonalEdgeStyle;rounded=0;orthogonalLoop=1;jettySize=auto;html=1;exitX=0;exitY=0.5;exitDx=0;exitDy=0;entryX=0.5;entryY=1;entryDx=0;entryDy=0;entryPerimeter=0;strokeWidth=3;jumpStyle=arc;" edge="1" parent="YqaYBz-fNlxFGL_8uid2-1" source="YqaYBz-fNlxFGL_8uid2-71" target="YqaYBz-fNlxFGL_8uid2-77">
          <mxGeometry relative="1" as="geometry">
            <mxPoint x="100" y="524" as="targetPoint" />
          </mxGeometry>
        </mxCell>
        <mxCell id="YqaYBz-fNlxFGL_8uid2-73" value="feature/テスト失敗" style="edgeLabel;html=1;align=left;verticalAlign=middle;resizable=0;points=[];" vertex="1" connectable="0" parent="YqaYBz-fNlxFGL_8uid2-72">
          <mxGeometry x="0.1003" y="-2" relative="1" as="geometry">
            <mxPoint x="-49" y="-11" as="offset" />
          </mxGeometry>
        </mxCell>
        <mxCell id="YqaYBz-fNlxFGL_8uid2-74" style="edgeStyle=orthogonalEdgeStyle;rounded=0;orthogonalLoop=1;jettySize=auto;html=1;exitX=1;exitY=0.5;exitDx=0;exitDy=0;entryX=0.5;entryY=0;entryDx=0;entryDy=0;endArrow=classic;endFill=1;strokeWidth=3;" edge="1" parent="YqaYBz-fNlxFGL_8uid2-1" source="YqaYBz-fNlxFGL_8uid2-62" target="YqaYBz-fNlxFGL_8uid2-53">
          <mxGeometry relative="1" as="geometry" />
        </mxCell>
        <mxCell id="YqaYBz-fNlxFGL_8uid2-75" value="トリガー: プルリクエスト" style="edgeLabel;html=1;align=center;verticalAlign=middle;resizable=0;points=[];" vertex="1" connectable="0" parent="YqaYBz-fNlxFGL_8uid2-74">
          <mxGeometry x="-0.5283" relative="1" as="geometry">
            <mxPoint x="41" y="-12" as="offset" />
          </mxGeometry>
        </mxCell>
        <mxCell id="YqaYBz-fNlxFGL_8uid2-76" style="edgeStyle=orthogonalEdgeStyle;rounded=0;orthogonalLoop=1;jettySize=auto;html=1;exitX=1;exitY=0.5;exitDx=0;exitDy=0;entryX=1;entryY=0.25;entryDx=0;entryDy=0;strokeWidth=3;" edge="1" parent="YqaYBz-fNlxFGL_8uid2-1" source="YqaYBz-fNlxFGL_8uid2-63" target="YqaYBz-fNlxFGL_8uid2-64">
          <mxGeometry relative="1" as="geometry" />
        </mxCell>
        <mxCell id="YqaYBz-fNlxFGL_8uid2-77" value="" style="verticalLabelPosition=bottom;verticalAlign=top;html=1;strokeWidth=4;shape=mxgraph.flowchart.on-page_reference;strokeColor=#0e8088;fillColor=#b0e3e6;" vertex="1" parent="YqaYBz-fNlxFGL_8uid2-1">
          <mxGeometry x="90" y="529" width="20" height="20" as="geometry" />
        </mxCell>
        <mxCell id="YqaYBz-fNlxFGL_8uid2-78" style="edgeStyle=orthogonalEdgeStyle;rounded=0;orthogonalLoop=1;jettySize=auto;html=1;exitX=0;exitY=0.5;exitDx=0;exitDy=0;entryX=0.75;entryY=0;entryDx=0;entryDy=0;strokeWidth=3;" edge="1" parent="YqaYBz-fNlxFGL_8uid2-1" source="YqaYBz-fNlxFGL_8uid2-80" target="YqaYBz-fNlxFGL_8uid2-61">
          <mxGeometry relative="1" as="geometry" />
        </mxCell>
        <mxCell id="YqaYBz-fNlxFGL_8uid2-79" value="CI/CD" style="swimlane;fontStyle=0;childLayout=stackLayout;horizontal=1;startSize=30;horizontalStack=0;resizeParent=1;resizeParentMax=0;resizeLast=0;collapsible=1;marginBottom=0;whiteSpace=wrap;html=1;swimlaneFillColor=default;" vertex="1" parent="YqaYBz-fNlxFGL_8uid2-1">
          <mxGeometry x="300" y="131" width="80" height="60" as="geometry">
            <mxRectangle x="300" y="255" width="80" height="30" as="alternateBounds" />
          </mxGeometry>
        </mxCell>
        <mxCell id="YqaYBz-fNlxFGL_8uid2-80" value="&lt;span style=&quot;font-size: 10px;&quot;&gt;プルリクエスト&lt;/span&gt;" style="text;strokeColor=none;fillColor=none;align=left;verticalAlign=middle;spacingLeft=4;spacingRight=4;overflow=hidden;points=[[0,0.5],[1,0.5]];portConstraint=eastwest;rotatable=0;whiteSpace=wrap;html=1;" vertex="1" parent="YqaYBz-fNlxFGL_8uid2-79">
          <mxGeometry y="30" width="80" height="30" as="geometry" />
        </mxCell>
        <mxCell id="YqaYBz-fNlxFGL_8uid2-82" style="edgeStyle=orthogonalEdgeStyle;rounded=0;orthogonalLoop=1;jettySize=auto;html=1;exitX=1;exitY=0.5;exitDx=0;exitDy=0;entryX=0.999;entryY=0.179;entryDx=0;entryDy=0;strokeWidth=3;entryPerimeter=0;" edge="1" parent="YqaYBz-fNlxFGL_8uid2-1" source="YqaYBz-fNlxFGL_8uid2-68" target="7NVtVOvOwvuB1zy33Tek-7">
          <mxGeometry relative="1" as="geometry">
            <mxPoint x="380" y="500" as="sourcePoint" />
            <mxPoint x="405" y="542.9999999999998" as="targetPoint" />
          </mxGeometry>
        </mxCell>
        <mxCell id="YqaYBz-fNlxFGL_8uid2-83" value="OK" style="edgeLabel;html=1;align=center;verticalAlign=middle;resizable=0;points=[];" vertex="1" connectable="0" parent="YqaYBz-fNlxFGL_8uid2-82">
          <mxGeometry x="-0.5638" y="1" relative="1" as="geometry">
            <mxPoint x="-11" y="-36" as="offset" />
          </mxGeometry>
        </mxCell>
        <mxCell id="YqaYBz-fNlxFGL_8uid2-84" style="edgeStyle=orthogonalEdgeStyle;rounded=0;orthogonalLoop=1;jettySize=auto;html=1;exitX=0;exitY=0.5;exitDx=0;exitDy=0;entryX=0;entryY=0.25;entryDx=0;entryDy=0;strokeWidth=3;" edge="1" parent="YqaYBz-fNlxFGL_8uid2-1" source="YqaYBz-fNlxFGL_8uid2-30" target="YqaYBz-fNlxFGL_8uid2-23">
          <mxGeometry relative="1" as="geometry" />
        </mxCell>
        <mxCell id="YqaYBz-fNlxFGL_8uid2-87" style="edgeStyle=orthogonalEdgeStyle;rounded=0;orthogonalLoop=1;jettySize=auto;html=1;exitX=0;exitY=0.5;exitDx=0;exitDy=0;exitPerimeter=0;entryX=1;entryY=0.5;entryDx=0;entryDy=0;entryPerimeter=0;strokeWidth=3;strokeColor=#666666;dashed=1;dashPattern=1 1;" edge="1" parent="YqaYBz-fNlxFGL_8uid2-1" source="YqaYBz-fNlxFGL_8uid2-51" target="YqaYBz-fNlxFGL_8uid2-50">
          <mxGeometry relative="1" as="geometry">
            <Array as="points">
              <mxPoint x="140" y="421" />
              <mxPoint x="140" y="180" />
            </Array>
          </mxGeometry>
        </mxCell>
        <mxCell id="YqaYBz-fNlxFGL_8uid2-88" value="(必要ならば)&lt;div&gt;修正差分の適用&lt;/div&gt;" style="edgeLabel;html=1;align=left;verticalAlign=middle;resizable=0;points=[];" vertex="1" connectable="0" parent="YqaYBz-fNlxFGL_8uid2-87">
          <mxGeometry x="-0.6336" y="-2" relative="1" as="geometry">
            <mxPoint x="-22" y="21" as="offset" />
          </mxGeometry>
        </mxCell>
        <mxCell id="YqaYBz-fNlxFGL_8uid2-89" style="edgeStyle=orthogonalEdgeStyle;rounded=0;orthogonalLoop=1;jettySize=auto;html=1;exitX=0.5;exitY=1;exitDx=0;exitDy=0;exitPerimeter=0;entryX=-0.002;entryY=0.102;entryDx=0;entryDy=0;entryPerimeter=0;strokeWidth=3;jumpStyle=arc;" edge="1" parent="YqaYBz-fNlxFGL_8uid2-1" source="YqaYBz-fNlxFGL_8uid2-50" target="YqaYBz-fNlxFGL_8uid2-61">
          <mxGeometry relative="1" as="geometry" />
        </mxCell>
        <mxCell id="YqaYBz-fNlxFGL_8uid2-90" style="edgeStyle=orthogonalEdgeStyle;rounded=0;orthogonalLoop=1;jettySize=auto;html=1;exitX=0.5;exitY=0;exitDx=0;exitDy=0;exitPerimeter=0;entryX=0;entryY=0.25;entryDx=0;entryDy=0;strokeWidth=3;jumpStyle=arc;" edge="1" parent="YqaYBz-fNlxFGL_8uid2-1" source="YqaYBz-fNlxFGL_8uid2-77" target="YqaYBz-fNlxFGL_8uid2-61">
          <mxGeometry relative="1" as="geometry" />
        </mxCell>
        <mxCell id="YqaYBz-fNlxFGL_8uid2-91" style="edgeStyle=orthogonalEdgeStyle;rounded=0;orthogonalLoop=1;jettySize=auto;html=1;exitX=0;exitY=0.5;exitDx=0;exitDy=0;entryX=1;entryY=0.5;entryDx=0;entryDy=0;entryPerimeter=0;strokeWidth=3;jumpStyle=arc;" edge="1" parent="YqaYBz-fNlxFGL_8uid2-1" source="YqaYBz-fNlxFGL_8uid2-33" target="YqaYBz-fNlxFGL_8uid2-34">
          <mxGeometry relative="1" as="geometry" />
        </mxCell>
        <mxCell id="YqaYBz-fNlxFGL_8uid2-92" value="hotfix/リリース失敗" style="edgeLabel;html=1;align=center;verticalAlign=middle;resizable=0;points=[];" vertex="1" connectable="0" parent="YqaYBz-fNlxFGL_8uid2-91">
          <mxGeometry x="0.4485" relative="1" as="geometry">
            <mxPoint x="-3" y="-16" as="offset" />
          </mxGeometry>
        </mxCell>
        <mxCell id="YqaYBz-fNlxFGL_8uid2-93" style="edgeStyle=orthogonalEdgeStyle;rounded=0;orthogonalLoop=1;jettySize=auto;html=1;exitX=0.855;exitY=0.855;exitDx=0;exitDy=0;exitPerimeter=0;entryX=0.5;entryY=0;entryDx=0;entryDy=0;strokeWidth=3;" edge="1" parent="YqaYBz-fNlxFGL_8uid2-1" source="YqaYBz-fNlxFGL_8uid2-51" target="YqaYBz-fNlxFGL_8uid2-67">
          <mxGeometry relative="1" as="geometry" />
        </mxCell>
        <mxCell id="YqaYBz-fNlxFGL_8uid2-94" value="トリガー: マージ" style="edgeLabel;html=1;align=center;verticalAlign=middle;resizable=0;points=[];" vertex="1" connectable="0" parent="YqaYBz-fNlxFGL_8uid2-93">
          <mxGeometry x="-0.6411" y="-1" relative="1" as="geometry">
            <mxPoint x="18" y="9" as="offset" />
          </mxGeometry>
        </mxCell>
        <mxCell id="YqaYBz-fNlxFGL_8uid2-95" style="edgeStyle=orthogonalEdgeStyle;rounded=0;orthogonalLoop=1;jettySize=auto;html=1;exitX=1;exitY=0.5;exitDx=0;exitDy=0;exitPerimeter=0;strokeWidth=3;entryX=0.5;entryY=0;entryDx=0;entryDy=0;" edge="1" parent="YqaYBz-fNlxFGL_8uid2-1" source="YqaYBz-fNlxFGL_8uid2-16" target="YqaYBz-fNlxFGL_8uid2-29">
          <mxGeometry relative="1" as="geometry" />
        </mxCell>
        <mxCell id="YqaYBz-fNlxFGL_8uid2-96" value="トリガー: マージ" style="edgeLabel;html=1;align=center;verticalAlign=middle;resizable=0;points=[];" vertex="1" connectable="0" parent="YqaYBz-fNlxFGL_8uid2-95">
          <mxGeometry x="-0.4227" y="-1" relative="1" as="geometry">
            <mxPoint x="6" y="10" as="offset" />
          </mxGeometry>
        </mxCell>
        <mxCell id="VC65Xf6tA8a3YoGSplrs-0" value="[動作確認環境]&lt;div&gt;Stage&lt;/div&gt;" style="shape=umlLifeline;perimeter=lifelinePerimeter;whiteSpace=wrap;html=1;container=0;dropTarget=0;collapsible=0;recursiveResize=0;outlineConnect=0;portConstraint=eastwest;newEdgeStyle={&quot;edgeStyle&quot;:&quot;elbowEdgeStyle&quot;,&quot;elbow&quot;:&quot;vertical&quot;,&quot;curved&quot;:0,&quot;rounded&quot;:0};fillColor=#6a00ff;strokeColor=#3700CC;fontColor=#ffffff;strokeWidth=1;" vertex="1" parent="YqaYBz-fNlxFGL_8uid2-1">
          <mxGeometry x="410.5" y="65.5" width="100" height="720" as="geometry" />
        </mxCell>
        <mxCell id="VC65Xf6tA8a3YoGSplrs-1" value="&lt;div&gt;release 用&lt;/div&gt;本番相当環境" style="shape=hexagon;perimeter=hexagonPerimeter2;whiteSpace=wrap;html=1;fixedSize=1;" vertex="1" parent="YqaYBz-fNlxFGL_8uid2-1">
          <mxGeometry x="405.5" y="580" width="110" height="40" as="geometry" />
        </mxCell>
        <mxCell id="VC65Xf6tA8a3YoGSplrs-2" value="&lt;div&gt;hotfix 用&lt;/div&gt;本番相当環境" style="shape=hexagon;perimeter=hexagonPerimeter2;whiteSpace=wrap;html=1;fixedSize=1;" vertex="1" parent="YqaYBz-fNlxFGL_8uid2-1">
          <mxGeometry x="405.5" y="317" width="110" height="40" as="geometry" />
        </mxCell>
        <mxCell id="7NVtVOvOwvuB1zy33Tek-0" value="CI/CD" style="swimlane;fontStyle=0;childLayout=stackLayout;horizontal=1;startSize=30;horizontalStack=0;resizeParent=1;resizeParentMax=0;resizeLast=0;collapsible=1;marginBottom=0;whiteSpace=wrap;html=1;swimlaneFillColor=default;" vertex="1" parent="YqaYBz-fNlxFGL_8uid2-1">
          <mxGeometry x="780" y="385.5" width="80" height="90" as="geometry">
            <mxRectangle x="300" y="255" width="80" height="30" as="alternateBounds" />
          </mxGeometry>
        </mxCell>
        <mxCell id="7NVtVOvOwvuB1zy33Tek-1" value="ビルド" style="text;strokeColor=none;fillColor=none;align=left;verticalAlign=middle;spacingLeft=4;spacingRight=4;overflow=hidden;points=[[0,0.5],[1,0.5]];portConstraint=eastwest;rotatable=0;whiteSpace=wrap;html=1;" vertex="1" parent="7NVtVOvOwvuB1zy33Tek-0">
          <mxGeometry y="30" width="80" height="30" as="geometry" />
        </mxCell>
        <mxCell id="7NVtVOvOwvuB1zy33Tek-2" value="&lt;span style=&quot;color: rgb(255, 255, 255); text-align: center;&quot;&gt;デプロイ&lt;/span&gt;" style="text;strokeColor=none;fillColor=none;align=left;verticalAlign=middle;spacingLeft=4;spacingRight=4;overflow=hidden;points=[[0,0.5],[1,0.5]];portConstraint=eastwest;rotatable=0;whiteSpace=wrap;html=1;" vertex="1" parent="7NVtVOvOwvuB1zy33Tek-0">
          <mxGeometry y="60" width="80" height="30" as="geometry" />
        </mxCell>
        <mxCell id="7NVtVOvOwvuB1zy33Tek-3" style="edgeStyle=orthogonalEdgeStyle;rounded=0;orthogonalLoop=1;jettySize=auto;html=1;exitX=1;exitY=0.5;exitDx=0;exitDy=0;entryX=0.999;entryY=0.179;entryDx=0;entryDy=0;entryPerimeter=0;strokeWidth=3;" edge="1" parent="YqaYBz-fNlxFGL_8uid2-1">
          <mxGeometry relative="1" as="geometry">
            <mxPoint x="860" y="314" as="sourcePoint" />
            <mxPoint x="859.9200000000001" y="401.6100000000001" as="targetPoint" />
            <Array as="points">
              <mxPoint x="890" y="314" />
              <mxPoint x="890" y="402" />
            </Array>
          </mxGeometry>
        </mxCell>
        <mxCell id="7NVtVOvOwvuB1zy33Tek-5" value="OK" style="edgeLabel;html=1;align=center;verticalAlign=middle;resizable=0;points=[];" vertex="1" connectable="0" parent="7NVtVOvOwvuB1zy33Tek-3">
          <mxGeometry x="-0.7526" y="1" relative="1" as="geometry">
            <mxPoint x="-5" y="10" as="offset" />
          </mxGeometry>
        </mxCell>
        <mxCell id="7NVtVOvOwvuB1zy33Tek-6" value="(hotfix のみ)" style="edgeLabel;html=1;align=center;verticalAlign=middle;resizable=0;points=[];" vertex="1" connectable="0" parent="7NVtVOvOwvuB1zy33Tek-3">
          <mxGeometry x="-0.7742" y="-1" relative="1" as="geometry">
            <mxPoint x="15" y="-15" as="offset" />
          </mxGeometry>
        </mxCell>
        <mxCell id="7NVtVOvOwvuB1zy33Tek-7" value="CI/CD" style="swimlane;fontStyle=0;childLayout=stackLayout;horizontal=1;startSize=30;horizontalStack=0;resizeParent=1;resizeParentMax=0;resizeLast=0;collapsible=1;marginBottom=0;whiteSpace=wrap;html=1;swimlaneFillColor=default;" vertex="1" parent="YqaYBz-fNlxFGL_8uid2-1">
          <mxGeometry x="300" y="651" width="80" height="90" as="geometry">
            <mxRectangle x="300" y="255" width="80" height="30" as="alternateBounds" />
          </mxGeometry>
        </mxCell>
        <mxCell id="7NVtVOvOwvuB1zy33Tek-8" value="ビルド" style="text;strokeColor=none;fillColor=none;align=left;verticalAlign=middle;spacingLeft=4;spacingRight=4;overflow=hidden;points=[[0,0.5],[1,0.5]];portConstraint=eastwest;rotatable=0;whiteSpace=wrap;html=1;" vertex="1" parent="7NVtVOvOwvuB1zy33Tek-7">
          <mxGeometry y="30" width="80" height="30" as="geometry" />
        </mxCell>
        <mxCell id="7NVtVOvOwvuB1zy33Tek-9" value="&lt;span style=&quot;color: rgb(255, 255, 255); text-align: center;&quot;&gt;デプロイ&lt;/span&gt;" style="text;strokeColor=none;fillColor=none;align=left;verticalAlign=middle;spacingLeft=4;spacingRight=4;overflow=hidden;points=[[0,0.5],[1,0.5]];portConstraint=eastwest;rotatable=0;whiteSpace=wrap;html=1;" vertex="1" parent="7NVtVOvOwvuB1zy33Tek-7">
          <mxGeometry y="60" width="80" height="30" as="geometry" />
        </mxCell>
        <mxCell id="7NVtVOvOwvuB1zy33Tek-10" style="edgeStyle=orthogonalEdgeStyle;rounded=0;orthogonalLoop=1;jettySize=auto;html=1;exitX=1;exitY=0.5;exitDx=0;exitDy=0;strokeWidth=3;" edge="1" parent="YqaYBz-fNlxFGL_8uid2-1" source="7NVtVOvOwvuB1zy33Tek-9" target="VC65Xf6tA8a3YoGSplrs-1">
          <mxGeometry relative="1" as="geometry" />
        </mxCell>
        <mxCell id="7NVtVOvOwvuB1zy33Tek-12" style="edgeStyle=elbowEdgeStyle;rounded=0;orthogonalLoop=1;jettySize=auto;html=1;exitX=1;exitY=0.5;exitDx=0;exitDy=0;entryX=0;entryY=0.5;entryDx=0;entryDy=0;strokeWidth=3;jumpStyle=arc;" edge="1" parent="YqaYBz-fNlxFGL_8uid2-1" source="VC65Xf6tA8a3YoGSplrs-1" target="VC65Xf6tA8a3YoGSplrs-3">
          <mxGeometry relative="1" as="geometry">
            <mxPoint x="660" y="280" as="targetPoint" />
            <Array as="points">
              <mxPoint x="560" y="420" />
              <mxPoint x="530" y="430" />
            </Array>
          </mxGeometry>
        </mxCell>
        <mxCell id="YqaYBz-fNlxFGL_8uid2-36" style="edgeStyle=elbowEdgeStyle;rounded=0;orthogonalLoop=1;jettySize=auto;html=1;exitX=0;exitY=0.5;exitDx=0;exitDy=0;entryX=1;entryY=0.25;entryDx=0;entryDy=0;strokeWidth=3;jumpStyle=arc;strokeColor=#666666;" edge="1" parent="YqaYBz-fNlxFGL_8uid2-1" source="YqaYBz-fNlxFGL_8uid2-30" target="YqaYBz-fNlxFGL_8uid2-79">
          <mxGeometry relative="1" as="geometry">
            <Array as="points">
              <mxPoint x="530" y="360" />
            </Array>
          </mxGeometry>
        </mxCell>
        <mxCell id="YqaYBz-fNlxFGL_8uid2-37" value="OK" style="edgeLabel;html=1;align=center;verticalAlign=middle;resizable=0;points=[];" vertex="1" connectable="0" parent="YqaYBz-fNlxFGL_8uid2-36">
          <mxGeometry x="-0.8808" y="-1" relative="1" as="geometry">
            <mxPoint x="16" y="-8" as="offset" />
          </mxGeometry>
        </mxCell>
        <mxCell id="YqaYBz-fNlxFGL_8uid2-38" value="hotfix マージ時のみ&lt;div&gt;プルリクエスト作成&lt;/div&gt;" style="edgeLabel;html=1;align=left;verticalAlign=middle;resizable=0;points=[];" vertex="1" connectable="0" parent="YqaYBz-fNlxFGL_8uid2-36">
          <mxGeometry x="-0.5651" relative="1" as="geometry">
            <mxPoint x="-12" y="-19" as="offset" />
          </mxGeometry>
        </mxCell>
        <mxCell id="7NVtVOvOwvuB1zy33Tek-4" style="edgeStyle=orthogonalEdgeStyle;rounded=0;orthogonalLoop=1;jettySize=auto;html=1;exitX=0;exitY=0.5;exitDx=0;exitDy=0;strokeWidth=3;jumpStyle=arc;" edge="1" parent="YqaYBz-fNlxFGL_8uid2-1" source="7NVtVOvOwvuB1zy33Tek-2" target="VC65Xf6tA8a3YoGSplrs-2">
          <mxGeometry relative="1" as="geometry" />
        </mxCell>
        <mxCell id="7NVtVOvOwvuB1zy33Tek-13" style="edgeStyle=orthogonalEdgeStyle;rounded=0;orthogonalLoop=1;jettySize=auto;html=1;exitX=1;exitY=0.5;exitDx=0;exitDy=0;entryX=0;entryY=0.5;entryDx=0;entryDy=0;strokeWidth=3;jumpStyle=arc;" edge="1" parent="YqaYBz-fNlxFGL_8uid2-1" source="VC65Xf6tA8a3YoGSplrs-2" target="YqaYBz-fNlxFGL_8uid2-21">
          <mxGeometry relative="1" as="geometry">
            <Array as="points">
              <mxPoint x="560" y="337" />
              <mxPoint x="560" y="374" />
            </Array>
          </mxGeometry>
        </mxCell>
        <mxCell id="YqaYBz-fNlxFGL_8uid2-85" style="edgeStyle=elbowEdgeStyle;rounded=0;orthogonalLoop=1;jettySize=auto;html=1;exitX=0.855;exitY=0.145;exitDx=0;exitDy=0;exitPerimeter=0;entryX=0.001;entryY=0.166;entryDx=0;entryDy=0;strokeWidth=3;jumpStyle=arc;entryPerimeter=0;" edge="1" parent="YqaYBz-fNlxFGL_8uid2-1" source="YqaYBz-fNlxFGL_8uid2-51" target="YqaYBz-fNlxFGL_8uid2-18">
          <mxGeometry relative="1" as="geometry">
            <mxPoint x="227.10000000000002" y="405.9" as="sourcePoint" />
            <mxPoint x="540" y="277" as="targetPoint" />
            <Array as="points">
              <mxPoint x="400" y="342" />
            </Array>
          </mxGeometry>
        </mxCell>
        <mxCell id="YqaYBz-fNlxFGL_8uid2-86" value="手動リリース" style="edgeLabel;html=1;align=center;verticalAlign=middle;resizable=0;points=[];" vertex="1" connectable="0" parent="YqaYBz-fNlxFGL_8uid2-85">
          <mxGeometry x="-0.8935" y="-2" relative="1" as="geometry">
            <mxPoint x="14" y="-13" as="offset" />
          </mxGeometry>
        </mxCell>
        <mxCell id="Phj893-08lqIGJFQe_Vq-0" value="本番環境" style="shape=umlLifeline;perimeter=lifelinePerimeter;whiteSpace=wrap;html=1;container=0;dropTarget=0;collapsible=0;recursiveResize=0;outlineConnect=0;portConstraint=eastwest;newEdgeStyle={&quot;edgeStyle&quot;:&quot;elbowEdgeStyle&quot;,&quot;elbow&quot;:&quot;vertical&quot;,&quot;curved&quot;:0,&quot;rounded&quot;:0};fontColor=#ffffff;strokeColor=#005700;fillColor=#008a00;" vertex="1" parent="YqaYBz-fNlxFGL_8uid2-1">
          <mxGeometry x="900" y="65.5" width="100" height="724" as="geometry" />
        </mxCell>
        <mxCell id="7NVtVOvOwvuB1zy33Tek-15" value="本番リリース&lt;div&gt;&lt;/div&gt;" style="shape=hexagon;perimeter=hexagonPerimeter2;whiteSpace=wrap;html=1;fixedSize=1;" vertex="1" parent="YqaYBz-fNlxFGL_8uid2-1">
          <mxGeometry x="895" y="741" width="110" height="40" as="geometry" />
        </mxCell>
      </root>
    </mxGraphModel>
  </diagram>
</mxfile>
